<svg height='100px' width='100px'  fill="#000000" xmlns="http://www.w3.org/2000/svg" xmlns:xlink="http://www.w3.org/1999/xlink" xmlns:sketch="http://www.bohemiancoding.com/sketch/ns" viewBox="0 0 100 100" version="1.1" x="0px" y="0px"><title>structure5</title><desc>Created with Sketch.</desc><g stroke="none" stroke-width="1" fill="none" fill-rule="evenodd" sketch:type="MSPage"><path d="M88.4370199,5 L12.7452318,5 C9.02602649,5 6,8.02602649 6,11.7452318 L6,87.4376159 C6,91.1568212 9.02602649,94.1828477 12.7452318,94.1828477 L88.4370199,94.1828477 C92.1568212,94.1828477 95.1828477,91.1568212 95.1828477,87.4376159 L95.1828477,11.7452318 C95.1828477,8.02602649 92.1568212,5 88.4370199,5 L88.4370199,5 Z M91.0106623,87.4376159 C91.0106623,88.8561589 89.8561589,90.0106623 88.4370199,90.0106623 L12.7452318,90.0106623 C11.3260927,90.0106623 10.1721854,88.8561589 10.1721854,87.4376159 L10.1721854,11.7452318 C10.1721854,10.3260927 11.3260927,9.17218543 12.7452318,9.17218543 L88.4370199,9.17218543 C89.8561589,9.17218543 91.0106623,10.3260927 91.0106623,11.7452318 L91.0106623,87.4376159 L91.0106623,87.4376159 Z M75.6331788,25.8484106 L67.2858278,17.5016556 L58.9384768,25.8484106 L50.5911258,17.5016556 L42.2443709,25.8484106 L33.8970199,17.5016556 L25.5496689,25.8484106 L18.0450993,18.3444371 L16.3595364,20.03 L25.5496689,29.2201325 L33.8970199,20.8727815 L42.2443709,29.2201325 L50.5911258,20.8727815 L58.9384768,29.2201325 L67.2858278,20.8727815 L75.6331788,29.2201325 L84.8233113,20.03 L83.1377483,18.3444371 L75.6331788,25.8484106 L75.6331788,25.8484106 Z M75.6331788,43.136755 L67.2858278,34.789404 L58.9384768,43.136755 L50.5911258,34.789404 L42.2443709,43.136755 L33.8970199,34.789404 L25.5496689,43.136755 L18.0450993,35.6321854 L16.3595364,37.3183444 L25.5496689,46.5084768 L33.8970199,38.1611258 L42.2443709,46.5084768 L50.5911258,38.1611258 L58.9384768,46.5084768 L67.2858278,38.1611258 L75.6331788,46.5084768 L84.8233113,37.3183444 L83.1377483,35.6321854 L75.6331788,43.136755 L75.6331788,43.136755 Z M75.6331788,60.4250993 L67.2858278,52.0777483 L58.9384768,60.4250993 L50.5911258,52.0777483 L42.2443709,60.4250993 L33.8970199,52.0777483 L25.5496689,60.4250993 L18.0450993,52.9205298 L16.3595364,54.6060927 L25.5496689,63.7962252 L33.8970199,55.4494702 L42.2443709,63.7962252 L50.5911258,55.4494702 L58.9384768,63.7962252 L67.2858278,55.4494702 L75.6331788,63.7962252 L84.8233113,54.6060927 L83.1377483,52.9205298 L75.6331788,60.4250993 L75.6331788,60.4250993 Z M75.6331788,77.7134437 L67.2858278,69.3660927 L58.9384768,77.7134437 L50.5911258,69.3660927 L42.2443709,77.7134437 L33.8970199,69.3660927 L25.5496689,77.7134437 L18.0450993,70.2088742 L16.3595364,71.8944371 L25.5496689,81.0845695 L33.8970199,72.7372185 L42.2443709,81.0845695 L50.5911258,72.7372185 L58.9384768,81.0845695 L67.2858278,72.7372185 L75.6331788,81.0845695 L84.8233113,71.8944371 L83.1377483,70.2088742 L75.6331788,77.7134437 L75.6331788,77.7134437 Z" fill="#000000" sketch:type="MSShapeGroup"></path></g></svg>