<svg height="96" viewBox="0 0 96 96" width="96" xmlns="http://www.w3.org/2000/svg" xmlns:xlink="http://www.w3.org/1999/xlink"><defs><path id="a" d="m10.9186813.24826374c-5.96283075 0-10.81501537 4.85105934-10.81501537 10.81501536v34.938655c0 2.6843428 2.18415825 4.8696263 4.86906374 4.8696263h11.89190333c2.6843428 0 4.8679384-2.1852835 4.8679384-4.8696263v-34.9392176c.0005627-5.96339342-4.8510593-10.81445276-10.8138901-10.81445276zm9.3229011 45.75367036c0 1.8628923-1.5140571 3.3780747-3.3769494 3.3780747h-11.89190333c-1.86232967 0-3.37751209-1.5151824-3.37751209-3.3780747v-34.9392176c0-5.14138024 4.18377143-9.32346375 9.32346372-9.32346375 5.1408176 0 9.3234638 4.18208351 9.3234638 9.32346375v34.9392176zm-9.3229011-42.0076308c-3.89738899 0-7.06841317 3.17102417-7.06841317 7.0684132v6.7696527c0 3.8985143 3.17102418 7.0695385 7.06841317 7.0695385 3.8979517 0 7.0695385-3.1715868 7.0695385-7.0695385v-6.7696527c-.0005627-3.89738903-3.1715868-7.0684132-7.0695385-7.0684132zm0 12.0241231c-2.73216701 0-4.95514723-2.2235429-4.95514723-4.9557099 0-2.73216705 2.22298022-4.95570991 4.95514723-4.95570991 2.7327297 0 4.9562725 2.22298022 4.9562725 4.95570991 0 2.732167-2.2241054 4.9557099-4.9562725 4.9557099zm0-8.90767475c-2.17909449 0-3.95196482 1.77287033-3.95196482 3.95252745 0 2.1785319 1.77287033 3.9519649 3.95196482 3.9519649 2.1796572 0 3.9530901-1.773433 3.9530901-3.9519649-.0005626-2.18021976-1.7739956-3.95252745-3.9530901-3.95252745zm1.4054682 2.33832088c-.1378462.29932307-.4923077.42985494-.7910682.29144615-.505811-.23405714-1.0903912-.16372747-1.523622.18341978-.43379337.34714724-.63184172.90190774-.51481315 1.44654064.06864176.3223912-.13615824.6391561-.45854945.7077978-.04276044.0090022-.0843956.0135033-.12546813.0135033-.27569231 0-.52325275-.1918593-.58345494-.4720527-.21155165-.9896791.14684835-1.99680003.93622857-2.62807915.7888176-.63071648 1.8499516-.7589978 2.7693011-.33476923.2993231.13897143.4304176.49343297.2914462.79219341zm.4737406 19.50719997c.1648528 0 .2987604.1339077.2987604.2981978v3.7595429c0 .1642901-.1339076.2981978-.2987604.2981978h-3.75841757c-.16485275 0-.2981978-.1339077-.2981978-.2981978v-3.7595429c0-.1642901.13334505-.2981978.2981978-.2981978z"/><mask id="b" fill="#fff"><use fill="#fff" fill-rule="evenodd" xlink:href="#a"/></mask></defs><g fill="none" fill-rule="evenodd" transform="translate(37.12 22.72)"><use fill="#fff" fill-rule="nonzero" xlink:href="#a"/><g fill="#2c2d34" mask="url(#b)"><path d="m0 0h96v96h-96z" transform="translate(-37.12 -22.72)"/></g></g></svg>