<?xml version="1.0" encoding="UTF-8"?>
<svg width="350px" height="95px" viewBox="0 0 350 95" version="1.1" xmlns="http://www.w3.org/2000/svg" xmlns:xlink="http://www.w3.org/1999/xlink">
    <!-- Generator: Sketch 64 (93537) - https://sketch.com -->
    <title>ArielCerda</title>
    <desc>Created with Sketch.</desc>
    <g id="ArielCerda" stroke="none" stroke-width="1" fill="none" fill-rule="evenodd">
        <g id="Group" fill="#FFFFFF">
            <path d="M165.809994,36.9501465 L169.003013,29.2251008 L185.740612,29.2251008 L188.933631,36.9501465 L197.688683,36.9501465 L181.569087,0.899933041 L173.329039,0.899933041 L157.260943,36.9501465 L165.809994,36.9501465 Z M183.114097,22.8905633 L171.681029,22.8905633 L177.397563,9.08848153 L183.114097,22.8905633 Z M209.791254,36.9501465 L209.791254,26.907587 L217.4648,26.907587 L224.417341,36.9501465 L233.378394,36.9501465 L225.292846,25.3625779 C227.66186,24.3325718 229.490121,22.8476463 230.777629,20.9078015 C232.065136,18.9679567 232.70889,16.6590264 232.70889,13.9810105 C232.70889,11.3029946 232.07372,8.98548092 230.803379,7.02846933 C229.533038,5.07145774 227.721944,3.56078213 225.370097,2.49644249 C223.018249,1.43210286 220.245816,0.899933041 217.052797,0.899933041 L217.052797,0.899933041 L201.448205,0.899933041 L201.448205,36.9501465 L209.791254,36.9501465 Z M216.589295,20.2640477 L209.791254,20.2640477 L209.791254,7.69797329 L216.589295,7.69797329 C219.095643,7.69797329 221.001154,8.2387265 222.305829,9.3202329 C223.610503,10.4017393 224.26284,11.9553318 224.26284,13.9810105 C224.26284,15.9723556 223.610503,17.5173648 222.305829,18.6160379 C221.001154,19.7147111 219.095643,20.2640477 216.589295,20.2640477 L216.589295,20.2640477 Z M247.643979,36.9501465 L247.643979,0.899933041 L239.300929,0.899933041 L239.300929,36.9501465 L247.643979,36.9501465 Z M284.106195,36.9501465 L284.106195,30.2551069 L264.484578,30.2551069 L264.484578,21.9120575 L281.222177,21.9120575 L281.222177,15.423019 L264.484578,15.423019 L264.484578,7.59497268 L283.436691,7.59497268 L283.436691,0.899933041 L256.193029,0.899933041 L256.193029,36.9501465 L284.106195,36.9501465 Z M317.16939,36.9501465 L317.16939,30.1521063 L299.092783,30.1521063 L299.092783,0.899933041 L290.749734,0.899933041 L290.749734,36.9501465 L317.16939,36.9501465 Z M179.251574,95.0461559 C182.375925,95.0461559 185.208442,94.4968193 187.749124,93.3981461 C190.289806,92.299473 192.418485,90.7029635 194.135162,88.6086178 L194.135162,88.6086178 L188.77913,83.6645885 C186.341449,86.5142721 183.320098,87.9391138 179.715076,87.9391138 C177.483397,87.9391138 175.492051,87.4498609 173.741041,86.4713551 C171.990031,85.4928493 170.625273,84.1280913 169.646767,82.3770809 C168.668261,80.6260705 168.179008,78.6347254 168.179008,76.4030455 C168.179008,74.1713656 168.668261,72.1800205 169.646767,70.4290101 C170.625273,68.6779998 171.990031,67.3132417 173.741041,66.3347359 C175.492051,65.3562301 177.483397,64.8669772 179.715076,64.8669772 C183.320098,64.8669772 186.341449,66.2746522 188.77913,69.0900022 L188.77913,69.0900022 L194.135162,64.1459729 C192.418485,62.0859607 190.298389,60.5066181 187.774874,59.4079449 C185.251359,58.3092717 182.427426,57.7599351 179.303074,57.7599351 C175.595052,57.7599351 172.256116,58.5581899 169.286265,60.1546993 C166.316414,61.7512088 163.981733,63.9657219 162.282223,66.7982386 C160.582713,69.6307554 159.732958,72.8323577 159.732958,76.4030455 C159.732958,79.9737333 160.582713,83.1753356 162.282223,86.0078524 C163.981733,88.8403692 166.316414,91.0548823 169.286265,92.6513917 C172.256116,94.2479012 175.577885,95.0461559 179.251574,95.0461559 Z M227.66186,94.4281522 L227.66186,87.7331126 L208.040244,87.7331126 L208.040244,79.3900632 L224.777843,79.3900632 L224.777843,72.9010248 L208.040244,72.9010248 L208.040244,65.0729784 L226.992356,65.0729784 L226.992356,58.3779388 L199.748695,58.3779388 L199.748695,94.4281522 L227.66186,94.4281522 Z M242.648449,94.4281522 L242.648449,84.3855928 L250.321994,84.3855928 L257.274536,94.4281522 L266.235589,94.4281522 L258.150041,82.8405836 C260.519055,81.8105775 262.347316,80.3256521 263.634823,78.3858073 C264.922331,76.4459624 265.566085,74.1370321 265.566085,71.4590162 C265.566085,68.7810004 264.930914,66.4634867 263.660573,64.5064751 C262.390233,62.5494635 260.579139,61.0387879 258.227291,59.9744482 C255.875444,58.9101086 253.103011,58.3779388 249.909992,58.3779388 L249.909992,58.3779388 L234.3054,58.3779388 L234.3054,94.4281522 L242.648449,94.4281522 Z M249.446489,77.7420534 L242.648449,77.7420534 L242.648449,65.175979 L249.446489,65.175979 C251.952837,65.175979 253.858349,65.7167322 255.163023,66.7982386 C256.467698,67.879745 257.120035,69.4333376 257.120035,71.4590162 C257.120035,73.4503614 256.467698,74.9953705 255.163023,76.0940437 C253.858349,77.1927169 251.952837,77.7420534 249.446489,77.7420534 L249.446489,77.7420534 Z M288.535221,94.4281522 C292.449244,94.4281522 295.908348,93.6813978 298.912532,92.187889 C301.916717,90.6943801 304.251397,88.591451 305.916574,85.8791016 C307.58175,83.1667522 308.414338,80.0080669 308.414338,76.4030455 C308.414338,72.7980242 307.58175,69.6393388 305.916574,66.9269894 C304.251397,64.21464 301.916717,62.1117109 298.912532,60.618202 C295.908348,59.1246932 292.449244,58.3779388 288.535221,58.3779388 L288.535221,58.3779388 L272.158124,58.3779388 L272.158124,94.4281522 L288.535221,94.4281522 Z M288.123218,87.5786117 L280.501173,87.5786117 L280.501173,65.2274793 L288.123218,65.2274793 C291.72824,65.2274793 294.603673,66.2317353 296.749519,68.2402472 C298.895365,70.2487591 299.968288,72.9696919 299.968288,76.4030455 C299.968288,79.8363992 298.895365,82.557332 296.749519,84.5658439 C294.603673,86.5743557 291.72824,87.5786117 288.123218,87.5786117 L288.123218,87.5786117 Z M317.993395,94.4281522 L321.186414,86.7031065 L337.924013,86.7031065 L341.117032,94.4281522 L349.872084,94.4281522 L333.752488,58.3779388 L325.51244,58.3779388 L309.444345,94.4281522 L317.993395,94.4281522 Z M335.297498,80.368569 L323.86443,80.368569 L329.580964,66.5664873 L335.297498,80.368569 Z" id="ARIELCERDA" fill-rule="nonzero"></path>
            <g id="logo-/-Logo" transform="translate(-0.000000, 0.000000)">
                <g id="Group-3">
                    <g id="Group-10-Copy-2">
                        <polygon id="Path-2-Copy-17" fill-opacity="0.800000012" points="111.457554 94.4281525 125.696625 70.9434306 112.439559 47.4587088 97.7094859 71.4326957"></polygon>
                        <polygon id="Path-2-Copy-19" points="55.9742783 0 0 94.4281525 27.9871392 94.4281525 55.4832759 47.4587088 83.4704151 94.4281525 111.457554 94.4281525 97.7094859 70.9434306"></polygon>
                    </g>
                    <polygon id="Path-2-Copy-2" points="84.45242 1.74889059e-30 111.948557 -6.95287438e-15 139.935696 47.9479738 125.696625 70.9434306"></polygon>
                </g>
            </g>
        </g>
    </g>
</svg>