<svg height="96" viewBox="0 0 96 96" width="96" xmlns="http://www.w3.org/2000/svg"><g fill="none" fill-rule="evenodd"><g transform="translate(24.96 22.4)"><path d="m45.8261245 50.895082h-39.12705908v-50.895082h26.89985308l12.227206 12.1178767z" fill="#32373f" fill-rule="nonzero"/><path d="m44.1541634 13.4260015h-11.6158456v-11.51198281z" fill="#d1d1d1" fill-rule="nonzero"/><rect fill="#000" height="13.398131" rx="6.699065" width="26.317757" y="7.656075"/><path d="m9.20376849 14.5638435h-2.16v1.4625h2.535v.90375h-3.66v-5.46h3.6525v.91125h-2.5275v1.30125h2.16zm.85068001 2.36625v-5.46h1.68c.4800024 0 .9093731.1081239 1.288125.324375.3787519.216251.6743739.523748.886875.9225s.31875.8518724.31875 1.359375v.25125c0 .5075025-.104374.958748-.313125 1.35375-.208751.3950019-.5031231.7012489-.883125.91875-.3800019.217501-.8087476.3274999-1.28625.33zm1.125-4.54875v3.645h.54375c.4400022 0 .7762488-.1437486 1.00875-.43125.2325012-.2875015.35125-.6987474.35625-1.23375v-.28875c0-.5550028-.1149989-.9756236-.345-1.261875-.2300012-.2862515-.5662478-.429375-1.00875-.429375zm4.87818 4.54875h-1.125v-5.46h1.125zm4.85943-4.54875h-1.6725v4.54875h-1.125v-4.54875h-1.65v-.91125h4.4475z" fill="#d1d1d1"/></g><path d="m52.18 54.8973333-2.8466667-2.1373333v8.4l2.8466667-2.1373333 2.7533333-2.0626667zm0 0-2.8466667-2.1373333v8.4l2.8466667-2.1373333 2.7533333-2.0626667zm0 0-2.8466667-2.1373333v8.4l2.8466667-2.1373333 2.7533333-2.0626667zm-1.9133333-5.3386666v-1.8853334c-1.876.1866667-3.584.9333334-4.9653334 2.0626667l1.3253334 1.3346667c1.036-.8026667 2.2773333-1.344 3.64-1.512zm-4.956 2.828-1.3346667-1.3253334c-1.1293333 1.3813334-1.876 3.0893334-2.0626667 4.9653334h1.8853334c.168-1.3626667.7093333-2.604 1.512-3.64zm-1.512 5.5066666h-1.8853334c.1866667 1.876.9333334 3.584 2.0626667 4.9653334l1.3346667-1.3346667c-.8026667-1.0266667-1.344-2.268-1.512-3.6306667zm1.5026666 6.2906667c1.3813334 1.1293333 3.0986667 1.876 4.9653334 2.0626667v-1.8853334c-1.3626667-.168-2.604-.7093333-3.64-1.512zm15.232-7.224c0 4.816-3.6586666 8.792-8.3533333 9.2866667v-1.8853334c3.6586667-.4853333 6.4866667-3.6213333 6.4866667-7.4013333s-2.828-6.916-6.4866667-7.4013333v-1.8853334c4.6946667.4946667 8.3533333 4.4706667 8.3533333 9.2866667z" fill="#d1d1d1"/></g></svg>