<svg height="283" viewBox="0 0 1609 283" width="1609" xmlns="http://www.w3.org/2000/svg"><g fill="none"><g fill="#fff" stroke="#fff" stroke-width="10" transform="translate(-614 10)"><path d="m618.3 115.6c6.6-1.1 13.2-1.7 19.8-2.2 16-1.3 32.1-1.6 48.2-.8 20.3 1 40.7 3.9 60.2 9.6 16.9 4.9 32.9 12.4 48.8 19.8 16.1 7.5 32 15.3 47.9 23.3 15.4 7.8 30.7 15.7 46 23.7 12 6.3 23.9 12.7 35.9 19.1 5.9 3.2 11.8 6.4 17.6 9.6 3.3 1.8 6.7 3.3 10.1 4.9 11.3 5.3 22.7 10.1 34.3 14.7 16.9 6.6 34 12.4 51.5 17.3 19.7 5.5 39.8 9.8 60.2 12.1 22 2.5 44.1 1.9 66-.3 20-2 39.9-5.4 59.4-10.2 13.4-3.3 26.8-7.3 39.7-12.1 5.1-1.9 10.3-3.9 15.2-6.2 8.1-3.8 16.2-7.7 24.3-11.5 2.1-1 4-2.3 6-3.5 5.1-3.1 10.3-6.2 15.4-9.3 4.5-2.7 9-5.4 13.4-8.1.9-.6 1.8-1 2.6-1.8 4.2-3.8 8.4-7.5 12.6-11.2 8.4-7.4 16.9-14.8 25.4-22.1 11.3-9.7 22.7-19.4 34.2-28.9 12.7-10.5 25.6-20.9 38.6-31.1 12.8-10 25.8-19.8 39-29.2 11.5-8.1 23.2-16 35.4-22.9 16.5-9.4 34-17 51.7-23.6 18-6.7 36.4-12.4 55-17.3 13.7-3.6 27.5-6.8 41.4-9.6 4.9-1 9.8-2 14.8-2.7 6-.9 12.1-1.5 18.2-2.1 14.1-1.3 28.3-2.2 42.5-2.5 19.4-.5 38.7-.1 58.1 1.4 21.8 1.6 43.5 4.6 64.8 9.6 22.2 5.1 43.7 12.6 64.7 21.3 19.6 8.1 38.7 17.4 57.4 27.4 16 8.6 31.7 17.7 47.4 27 11.6 6.9 23.2 14 35.3 20.2 4.1 2.1 8.3 4.2 12.7 5.7 2.5.9 4.9 1.7 7.3 2.7 14.3 5.5 29 10.2 44 13.7 9.3 2.2 18.8 4 28.3 4.7 5.3.4 10.7.4 16 .5 4.9.1 9.8.1 14.7.1 7.1 0 14.3.1 21.4-.3v10.6 26.2 33.5 32.8 23.9 6c0 .2.1 1 0 1.1-.2.1-1.1 0-1.4 0-1.1 0-2.2 0-3.3 0-1.7 0-3.4 0-5.2 0-2.3 0-4.6 0-6.9 0-2.9 0-5.8 0-8.7 0-3.5 0-6.9 0-10.4 0-4 0-8 0-12 0-4.5 0-9.1 0-13.6 0-5.1 0-10.1 0-15.2 0-5.5 0-11.1 0-16.6 0-6 0-12 0-18 0-6.5 0-12.9 0-19.4 0-6.9 0-13.8 0-20.6 0-7.3 0-14.6 0-21.9 0-7.7 0-15.4 0-23.1 0-8.1 0-16.2 0-24.2 0-8.4 0-16.8 0-25.2 0-8.8 0-17.5 0-26.3 0-9.1 0-18.2 0-27.3 0-9.3 0-18.7 0-28 0-9.7 0-19.3 0-29 0-9.9 0-19.8 0-29.8 0-10.1 0-20.3 0-30.4 0-10.4 0-20.7 0-31.1 0-10.6 0-21.2 0-31.8 0-10.8 0-21.5 0-32.3 0-10.9 0-21.7 0-32.6 0-11.1 0-22.2 0-33.2 0-11.2 0-22.4 0-33.6 0s-22.5 0-33.7 0c-11.4 0-22.8 0-34.2 0-11.5 0-22.9 0-34.4 0s-23 0-34.4 0c-11.5 0-23 0-34.5 0-11.6 0-23.1 0-34.7 0-11.5 0-23 0-34.5 0s-23 0-34.5 0-22.9 0-34.4 0c-11.4 0-22.8 0-34.2 0-11.3 0-22.5 0-33.8 0-11.2 0-22.4 0-33.7 0-11.1 0-22.2 0-33.3 0-10.9 0-21.8 0-32.7 0-10.8 0-21.6 0-32.4 0-10.6 0-21.2 0-31.8 0-10.4 0-20.8 0-31.1 0-10.2 0-20.3 0-30.5 0-10 0-19.9 0-29.9 0-9.7 0-19.3 0-29 0-9.4 0-18.8 0-28.2 0-9.1 0-18.2 0-27.4 0-8.8 0-17.6 0-26.4 0-8.4 0-16.9 0-25.3 0-8.1 0-16.2 0-24.4 0-7.7 0-15.5 0-23.2 0-7.3 0-14.6 0-21.9 0-6.9 0-13.9 0-20.8 0-6.5 0-13 0-19.6 0-6.1 0-12.1 0-18.2 0-5.6 0-11.2 0-16.8 0-5.1 0-10.2 0-15.3 0-4.6 0-9.2 0-13.8 0-4.1 0-8.1 0-12.2 0-3.5 0-7.1 0-10.6 0-3 0-5.9 0-8.9 0-2.4 0-4.8 0-7.1 0-1.8 0-3.6 0-5.4 0-1.2 0-2.3 0-3.5 0-.3 0-1.3.2-1.6 0-.1-.1-.1-.1-.1-.4-.1-1.4 0-2.9 0-4.3 0-6.8 0-13.5 0-20.3 0-10.1 0-20.3 0-30.4 0-11.4 0-22.8 0-34.3 0-10.6 0-21.3 0-31.9 0-7.7 0-15.4 0-23.1.1-2.9.1-5.6.1-8.3z"/><path d="m802 159.2c6.6-1.1 13.2-1.7 19.8-2.2 16-1.3 32.1-1.6 48.2-.8 20.3 1 40.7 3.9 60.2 9.6 16.9 4.9 32.9 12.4 48.8 19.8 16.1 7.5 32 15.3 47.9 23.3 15.4 7.8 30.7 15.7 46 23.7 12 6.3 23.9 12.7 35.9 19.1 5.9 3.2 11.8 6.4 17.6 9.6 3.3 1.8 6.7 3.3 10.1 4.9 11.3 5.3 22.7 10.1 34.3 14.7 16.9 6.6 34 12.4 51.5 17.3 19.7 5.5 39.8 9.8 60.2 12.1 22 2.5 44.1 1.9 66-.3 20-2 39.9-5.4 59.4-10.2 13.4-3.3 26.8-7.3 39.7-12.1 5.1-1.9 10.3-3.9 15.2-6.2 8.1-3.8 16.2-7.7 24.3-11.5 2.1-1 4-2.3 6-3.5 5.1-3.1 10.3-6.2 15.4-9.3 4.5-2.7 9-5.4 13.4-8.1.9-.6 1.8-1 2.6-1.8 4.2-3.8 8.4-7.5 12.6-11.2 8.4-7.4 16.9-14.8 25.4-22.1 11.3-9.7 22.7-19.4 34.2-28.9 12.7-10.5 25.6-20.9 38.6-31.1 12.8-10 25.8-19.8 39-29.2 11.5-8.1 23.2-16 35.4-22.9 16.5-9.4 34-17 51.7-23.6 18-6.7 36.4-12.4 55-17.3 13.7-3.6 27.5-6.8 41.4-9.6 4.9-1 9.8-2 14.8-2.7 6-.9 12.1-1.5 18.2-2.1 14.1-1.3 28.3-2.2 42.5-2.5 19.4-.5 38.7-.1 58.1 1.4 21.8 1.6 43.5 4.6 64.8 9.6 22.3 5 43.8 12.5 64.8 21.2 19.6 8.1 38.7 17.4 57.4 27.4 16 8.6 31.7 17.7 47.4 27 11.6 6.9 23.2 14 35.3 20.2 4.1 2.1 8.3 4.2 12.7 5.7 2.5.9 4.9 1.7 7.3 2.7 14.3 5.5 29 10.2 44 13.7 9.3 2.2 18.8 4 28.3 4.7 5.3.4 10.7.4 16 .5 4.9.1 9.8.1 14.7.1 7.1 0 14.3.1 21.4-.3v10.6 26.2 33.5 32.8 23.9 6c0 .2.1 1 0 1.1-.2.1-1.1 0-1.4 0-1.1 0-2.2 0-3.3 0-1.7 0-3.4 0-5.2 0-2.3 0-4.6 0-6.9 0-2.9 0-5.8 0-8.7 0-3.5 0-6.9 0-10.4 0-4 0-8 0-12 0-4.5 0-9.1 0-13.6 0-5.1 0-10.1 0-15.2 0-5.5 0-11.1 0-16.6 0-6 0-12 0-18 0-6.5 0-12.9 0-19.4 0-6.9 0-13.8 0-20.6 0-7.3 0-14.6 0-21.9 0-7.7 0-15.4 0-23.1 0-8.1 0-16.2 0-24.2 0-8.4 0-16.8 0-25.2 0-8.8 0-17.5 0-26.3 0-9.1 0-18.2 0-27.3 0-9.3 0-18.7 0-28 0-9.7 0-19.3 0-29 0-9.9 0-19.8 0-29.8 0-10.1 0-20.3 0-30.4 0-10.4 0-20.7 0-31.1 0-10.6 0-21.2 0-31.8 0-10.8 0-21.5 0-32.3 0-10.9 0-21.7 0-32.6 0-11.1 0-22.2 0-33.2 0-11.2 0-22.4 0-33.6 0s-22.5 0-33.7 0c-11.4 0-22.8 0-34.2 0-11.5 0-22.9 0-34.4 0s-23 0-34.4 0c-11.5 0-23 0-34.5 0-11.6 0-23.1 0-34.7 0-11.5 0-23 0-34.5 0s-23 0-34.5 0-22.9 0-34.4 0c-11.4 0-22.8 0-34.2 0-11.3 0-22.5 0-33.8 0-11.2 0-22.4 0-33.7 0-11.1 0-22.2 0-33.3 0-10.9 0-21.8 0-32.7 0-10.8 0-21.6 0-32.4 0-10.6 0-21.2 0-31.8 0-10.4 0-20.8 0-31.1 0-10.2 0-20.3 0-30.5 0-10 0-19.9 0-29.9 0-9.7 0-19.3 0-29 0-9.4 0-18.8 0-28.2 0-9.1 0-18.2 0-27.4 0-8.8 0-17.6 0-26.4 0-8.4 0-16.9 0-25.3 0-8.1 0-16.2 0-24.4 0-7.7 0-15.5 0-23.2 0-7.3 0-14.6 0-21.9 0-6.9 0-13.9 0-20.8 0-6.5 0-13 0-19.6 0-6.1 0-12.1 0-18.2 0-5.6 0-11.2 0-16.8 0-5.1 0-10.2 0-15.3 0-4.6 0-9.2 0-13.8 0-4.1 0-8.1 0-12.2 0-3.5 0-7.1 0-10.6 0-3 0-5.9 0-8.9 0-2.4 0-4.8 0-7.1 0-1.8 0-3.6 0-5.4 0-1.2 0-2.3 0-3.5 0-.3 0-1.3.2-1.6 0-.1-.1-.1-.1-.1-.4-.1-1.4 0-2.9 0-4.3 0-6.8 0-13.5 0-20.3 0-10.1 0-20.3 0-30.4 0-11.4 0-22.8 0-34.3 0-10.6 0-21.3 0-31.9 0-7.7 0-15.4 0-23.1 0-2.8 0-5.5 0-8.2z" opacity=".5"/><path d="m211.3 193.5c6.6-1.1 13.2-1.7 19.8-2.2 16-1.3 32.1-1.6 48.2-.8 20.3 1 40.7 3.9 60.2 9.6 16.9 4.9 32.9 12.4 48.8 19.8 16.1 7.5 32 15.3 47.9 23.3 15.4 7.8 30.7 15.7 46 23.7 12 6.3 23.9 12.7 35.9 19.1 5.9 3.2 11.8 6.4 17.6 9.6 3.3 1.8 6.7 3.3 10.1 4.9 11.3 5.3 22.7 10.1 34.3 14.7 16.9 6.6 34 12.4 51.5 17.3 19.7 5.5 39.8 9.8 60.2 12.1 22 2.5 44.1 1.9 66-.3 20-2 39.9-5.4 59.4-10.2 13.4-3.3 26.8-7.3 39.7-12.1 5.1-1.9 10.3-3.9 15.2-6.2 8.1-3.8 16.2-7.7 24.3-11.5 2.1-1 4-2.3 6-3.5 5.1-3.1 10.3-6.2 15.4-9.3 4.5-2.7 9-5.4 13.4-8.1.9-.6 1.8-1 2.6-1.8 4.2-3.8 8.4-7.5 12.6-11.2 8.4-7.4 16.9-14.8 25.4-22.1 11.3-9.7 22.7-19.4 34.2-28.9 12.7-10.5 25.6-20.9 38.6-31.1 12.8-10 25.8-19.8 39-29.2 11.5-8.1 23.2-16 35.4-22.9 16.5-9.4 34-17 51.7-23.6 18-6.7 36.4-12.4 55-17.3 13.7-3.6 27.5-6.8 41.4-9.6 4.9-1 9.8-2 14.8-2.7 6-.9 12.1-1.5 18.2-2.1 14.1-1.3 28.3-2.2 42.5-2.5 19.4-.5 38.7-.1 58.1 1.4 21.8 1.6 43.5 4.6 64.8 9.6 22.2 5.1 43.7 12.6 64.7 21.3 19.7 8 38.8 17.3 57.5 27.3 16 8.6 31.7 17.7 47.4 27 11.6 6.9 23.2 14 35.3 20.2 4.1 2.1 8.3 4.2 12.7 5.7 2.5.9 4.9 1.7 7.3 2.7 14.3 5.5 29 10.2 44 13.7 9.3 2.2 18.8 4 28.3 4.7 5.3.4 10.7.4 16 .5 4.9.1 9.8.1 14.7.1 7.1 0 14.3.1 21.4-.3v10.6 26.2 33.5 32.8 23.9 6c0 .2.1 1 0 1.1-.2.1-1.1 0-1.4 0-1.1 0-2.2 0-3.3 0-1.7 0-3.4 0-5.2 0-2.3 0-4.6 0-6.9 0-2.9 0-5.8 0-8.7 0-3.5 0-6.9 0-10.4 0-4 0-8 0-12 0-4.5 0-9.1 0-13.6 0-5.1 0-10.1 0-15.2 0-5.5 0-11.1 0-16.6 0-6 0-12 0-18 0-6.5 0-12.9 0-19.4 0-6.9 0-13.8 0-20.6 0-7.3 0-14.6 0-21.9 0-7.7 0-15.4 0-23.1 0-8.1 0-16.2 0-24.2 0-8.4 0-16.8 0-25.2 0-8.8 0-17.5 0-26.3 0-9.1 0-18.2 0-27.3 0-9.3 0-18.7 0-28 0-9.7 0-19.3 0-29 0-9.9 0-19.8 0-29.8 0-10.1 0-20.3 0-30.4 0-10.4 0-20.7 0-31.1 0-10.6 0-21.2 0-31.8 0-10.8 0-21.5 0-32.3 0-10.9 0-21.7 0-32.6 0-11.1 0-22.2 0-33.2 0-11.2 0-22.4 0-33.6 0s-22.5 0-33.7 0c-11.4 0-22.8 0-34.2 0-11.5 0-22.9 0-34.4 0s-23 0-34.4 0c-11.5 0-23 0-34.5 0-11.6 0-23.1 0-34.7 0-11.5 0-23 0-34.5 0s-23 0-34.5 0-22.9 0-34.4 0c-11.4 0-22.8 0-34.2 0-11.3 0-22.5 0-33.8 0-11.2 0-22.4 0-33.7 0-11.1 0-22.2 0-33.3 0-10.9 0-21.8 0-32.7 0-10.8 0-21.6 0-32.4 0-10.6 0-21.2 0-31.8 0-10.4 0-20.8 0-31.1 0-10.2 0-20.3 0-30.5 0-10 0-19.9 0-29.9 0-9.7 0-19.3 0-29 0-9.4 0-18.8 0-28.2 0-9.1 0-18.2 0-27.4 0-8.8 0-17.6 0-26.4 0-8.4 0-16.9 0-25.3 0-8.1 0-16.2 0-24.4 0-7.7 0-15.5 0-23.2 0-7.3 0-14.6 0-21.9 0-6.9 0-13.9 0-20.8 0-6.5 0-13 0-19.6 0-6.1 0-12.1 0-18.2 0-5.6 0-11.2 0-16.8 0-5.1 0-10.2 0-15.3 0-4.6 0-9.2 0-13.8 0-4.1 0-8.1 0-12.2 0-3.5 0-7.1 0-10.6 0-3 0-5.9 0-8.9 0-2.4 0-4.8 0-7.1 0-1.8 0-3.6 0-5.4 0-1.2 0-2.3 0-3.5 0-.3 0-1.3.2-1.6 0-.1-.1-.1-.1-.1-.4-.1-1.4 0-2.9 0-4.3 0-6.8 0-13.5 0-20.3 0-10.1 0-20.3 0-30.4 0-11.4 0-22.8 0-34.3 0-10.6 0-21.3 0-31.9 0-7.7 0-15.4 0-23.1 0-2.8 0-5.5 0-8.2z" opacity=".15"/><path d="m431.5 133.5c8.9-1.1 17.9-1.7 26.8-2.2 21.7-1.3 43.4-1.6 65.1-.8 27.5 1 55 3.9 81.5 9.6 22.9 4.9 44.5 12.4 66.1 19.8 21.8 7.5 43.3 15.3 64.7 23.3 20.8 7.8 41.5 15.7 62.2 23.7 16.2 6.3 32.4 12.7 48.5 19.1 8 3.2 15.9 6.4 23.8 9.6 4.4 1.8 9.1 3.3 13.6 4.9 15.2 5.3 30.8 10.1 46.4 14.7 22.8 6.6 46 12.4 69.6 17.3 26.7 5.5 53.9 9.8 81.4 12.1 29.7 2.5 59.6 1.9 89.3-.3 27.1-2 54-5.4 80.4-10.2 18.2-3.3 36.2-7.3 53.8-12.1 6.9-1.9 13.9-3.9 20.6-6.2 11-3.8 21.9-7.7 32.9-11.5 2.8-1 5.4-2.3 8.1-3.5 7-3.1 13.9-6.2 20.9-9.3 6.1-2.7 12.1-5.4 18.2-8.1 1.3-.6 2.4-1 3.5-1.8 5.6-3.8 11.3-7.5 17-11.2 11.4-7.4 22.8-14.8 34.3-22.1 15.3-9.7 30.7-19.4 46.3-28.9 17.2-10.5 34.6-20.9 52.2-31.1 17.3-10 34.9-19.8 52.8-29.2 15.5-8.1 31.3-16 47.8-22.9 22.3-9.4 45.9-17 70-23.6 24.4-6.7 49.3-12.4 74.4-17.3 18.5-3.6 37.2-6.8 56-9.6 6.6-1 13.3-2 20-2.7 8.2-.9 16.4-1.5 24.6-2.1 19.1-1.3 38.3-2.2 57.5-2.5 26.2-.5 52.4-.1 78.5 1.4 29.5 1.6 58.9 4.6 87.7 9.6 30 5.1 59.1 12.6 87.5 21.3 26.5 8.1 52.4 17.4 77.7 27.4 21.7 8.6 42.9 17.7 64.1 27 15.8 6.9 31.4 14 47.7 20.2 5.6 2.1 11.3 4.2 17.2 5.7 3.3.9 6.6 1.7 9.9 2.7 19.4 5.5 39.3 10.2 59.5 13.7 12.6 2.2 25.4 4 38.3 4.7 7.2.4 14.5.4 21.7.5 6.6.1 13.2.1 19.8.1 9.6 0 19.3.1 28.9-.3v10.6 26.2 33.5 32.8 23.9 6c0 .2.1 1 0 1.1-.2.1-1.5 0-1.8 0-1.5 0-3 0-4.4 0-2.3 0-4.7 0-7 0-3.1 0-6.2 0-9.4 0-3.9 0-7.9 0-11.8 0-4.7 0-9.4 0-14.1 0-5.4 0-10.8 0-16.2 0-6.2 0-12.3 0-18.5 0-6.8 0-13.7 0-20.5 0-7.5 0-15 0-22.4 0-8.1 0-16.2 0-24.3 0-8.7 0-17.5 0-26.2 0-9.3 0-18.6 0-27.9 0-9.9 0-19.7 0-29.6 0-10.4 0-20.8 0-31.3 0-10.9 0-21.9 0-32.8 0-11.3 0-22.7 0-34 0-11.9 0-23.7 0-35.6 0-12.3 0-24.6 0-36.9 0-12.6 0-25.2 0-37.9 0-13.1 0-26.1 0-39.2 0-13.4 0-26.8 0-40.3 0-13.7 0-27.4 0-41.1 0-14 0-28 0-42 0-14.3 0-28.6 0-43 0-14.6 0-29.1 0-43.7 0-14.7 0-29.4 0-44.1 0-15 0-30 0-45 0-15.2 0-30.3 0-45.5 0s-30.4 0-45.6 0c-15.4 0-30.8 0-46.3 0s-31 0-46.5 0-31.1 0-46.6 0c-15.6 0-31.1 0-46.7 0s-31.3 0-46.9 0-31.2 0-46.7 0-31.1 0-46.6 0-31 0-46.6 0c-15.4 0-30.9 0-46.3 0-15.2 0-30.5 0-45.7 0s-30.4 0-45.5 0c-15 0-30 0-45 0-14.7 0-29.5 0-44.2 0-14.6 0-29.2 0-43.8 0-14.4 0-28.7 0-43.1 0-14 0-28.1 0-42.1 0-13.7 0-27.5 0-41.2 0-13.5 0-26.9 0-40.4 0-13.1 0-26.2 0-39.2 0-12.7 0-25.4 0-38.1 0-12.3 0-24.7 0-37 0-11.9 0-23.8 0-35.7 0-11.4 0-22.8 0-34.2 0-11 0-22 0-33 0-10.5 0-21 0-31.4 0-9.9 0-19.8 0-29.7 0-9.4 0-18.8 0-28.2 0-8.8 0-17.6 0-26.4 0-8.2 0-16.4 0-24.6 0-7.6 0-15.1 0-22.7 0-6.9 0-13.8 0-20.8 0-6.2 0-12.5 0-18.7 0-5.5 0-11 0-16.5 0-4.8 0-9.6 0-14.4 0-4 0-8 0-12.1 0-3.2 0-6.4 0-9.6 0-2.4 0-4.8 0-7.3 0-1.6 0-3.2 0-4.7 0-.4 0-1.8.2-2.1 0-.2-.1-.1-.1-.1-.4-.2-1.4 0-2.9 0-4.3 0-6.8 0-13.5 0-20.3 0-10.1 0-20.3 0-30.4 0-11.4 0-22.8 0-34.3 0-10.6 0-21.3 0-31.9 0-7.7 0-15.4 0-23.1 0-3 0-5.7 0-8.3z" opacity=".15"/><path d="m.2 303.5c6.6-1.1 13.2-1.7 19.8-2.2 16-1.3 32.1-1.6 48.2-.8 20.3 1 40.7 3.9 60.2 9.6 16.9 4.9 32.9 12.4 48.8 19.8 16.1 7.5 32 15.3 47.9 23.3 15.4 7.8 30.7 15.7 46 23.7 12 6.3 23.9 12.7 35.9 19.1 5.9 3.2 11.8 6.4 17.6 9.6 3.3 1.8 6.7 3.3 10.1 4.9 11.3 5.3 22.7 10.1 34.3 14.7 16.9 6.6 34 12.4 51.5 17.3 19.7 5.5 39.8 9.8 60.2 12.1 22 2.5 44.1 1.9 66-.3 20-2 39.9-5.4 59.4-10.2 13.4-3.3 26.8-7.3 39.7-12.1 5.1-1.9 10.3-3.9 15.2-6.2 8.1-3.8 16.2-7.7 24.3-11.5 2.1-1 4-2.3 6-3.5 5.1-3.1 10.3-6.2 15.4-9.3 4.5-2.7 9-5.4 13.4-8.1.9-.6 1.8-1 2.6-1.8 4.2-3.8 8.4-7.5 12.6-11.2 8.4-7.4 16.9-14.8 25.4-22.1 11.3-9.7 22.7-19.4 34.2-28.9 12.7-10.5 25.6-20.9 38.6-31.1 12.8-10 25.8-19.8 39-29.2 11.5-8.1 23.2-16 35.4-22.9 16.5-9.4 34-17 51.7-23.6 18-6.7 36.4-12.4 55-17.3 13.7-3.6 27.5-6.8 41.4-9.6 4.9-1 9.8-2 14.8-2.7 6-.9 12.1-1.5 18.2-2.1 14.1-1.3 28.3-2.2 42.5-2.5 19.4-.5 38.7-.1 58.1 1.4 21.8 1.6 43.5 4.6 64.8 9.6 22.2 5.1 43.7 12.6 64.7 21.3 19.6 8.1 38.7 17.4 57.4 27.4 16 8.6 31.7 17.7 47.4 27 11.6 6.9 23.2 14 35.3 20.2 4.1 2.1 8.3 4.2 12.7 5.7 2.5.9 4.9 1.7 7.3 2.7 14.3 5.5 29 10.2 44 13.7 9.3 2.2 18.8 4 28.3 4.7 5.3.4 10.7.4 16 .5 4.9.1 9.8.1 14.7.1 7.1 0 14.3.1 21.4-.3v10.6 26.2 33.5 32.8 23.9 6c0 .2.1 1 0 1.1-.2.1-1.1 0-1.4 0-1.1 0-2.2 0-3.3 0-1.7 0-3.4 0-5.2 0-2.3 0-4.6 0-6.9 0-2.9 0-5.8 0-8.7 0-3.5 0-6.9 0-10.4 0-4 0-8 0-12 0-4.5 0-9.1 0-13.6 0-5.1 0-10.1 0-15.2 0-5.5 0-11.1 0-16.6 0-6 0-12 0-18 0-6.5 0-12.9 0-19.4 0-6.9 0-13.8 0-20.6 0-7.3 0-14.6 0-21.9 0-7.7 0-15.4 0-23.1 0-8.1 0-16.2 0-24.2 0-8.4 0-16.8 0-25.2 0-8.8 0-17.5 0-26.3 0-9.1 0-18.2 0-27.3 0-9.3 0-18.7 0-28 0-9.7 0-19.3 0-29 0-9.9 0-19.8 0-29.8 0-10.1 0-20.3 0-30.4 0-10.4 0-20.7 0-31.1 0-10.6 0-21.2 0-31.8 0-10.8 0-21.5 0-32.3 0-10.9 0-21.7 0-32.6 0-11.1 0-22.2 0-33.2 0-11.2 0-22.4 0-33.6 0s-22.5 0-33.7 0c-11.4 0-22.8 0-34.2 0-11.5 0-22.9 0-34.4 0s-23 0-34.4 0c-11.5 0-23 0-34.5 0-11.6 0-23.1 0-34.7 0-11.5 0-23 0-34.5 0s-23 0-34.5 0-22.9 0-34.4 0c-11.4 0-22.8 0-34.2 0-11.3 0-22.5 0-33.8 0-11.2 0-22.4 0-33.7 0-11.1 0-22.2 0-33.3 0-10.9 0-21.8 0-32.7 0-10.8 0-21.6 0-32.4 0-10.6 0-21.2 0-31.8 0-10.4 0-20.8 0-31.1 0-10.2 0-20.3 0-30.5 0-10 0-19.9 0-29.9 0-9.7 0-19.3 0-29 0-9.4 0-18.8 0-28.2 0-9.1 0-18.2 0-27.4 0-8.8 0-17.6 0-26.4 0-8.4 0-16.9 0-25.3 0-8.1 0-16.2 0-24.4 0-7.7 0-15.5 0-23.2 0-7.3 0-14.6 0-21.9 0-6.9 0-13.9 0-20.8 0-6.5 0-13 0-19.6 0-6.1 0-12.1 0-18.2 0-5.6 0-11.2 0-16.8 0-5.1 0-10.2 0-15.3 0-4.6 0-9.2 0-13.8 0-4.1 0-8.1 0-12.2 0-3.5 0-7.1 0-10.6 0-3 0-5.9 0-8.9 0-2.4 0-4.8 0-7.1 0-1.8 0-3.6 0-5.4 0-1.2 0-2.3 0-3.5 0-.3 0-1.3.2-1.6 0-.1-.1-.1-.1-.1-.4-.1-1.4 0-2.9 0-4.3 0-6.8 0-13.5 0-20.3 0-10.1 0-20.3 0-30.4 0-11.4 0-22.8 0-34.3 0-10.6 0-21.3 0-31.9 0-7.7 0-15.4 0-23.1.1-2.9.1-5.6.1-8.3z" opacity=".3"/></g><g fill="#ed9b3a" stroke="#f0f3f4" stroke-width="3"><circle cx="44.5" cy="117.4" r="6.5"/><circle cx="245.6" cy="178" r="6.5"/><circle cx="446.7" cy="265.3" r="6.5"/><circle cx="647.9" cy="249.6" r="6.5"/><circle cx="849" cy="106.7" r="6.5"/><circle cx="1050.2" cy="16.8" r="6.5"/><circle cx="1251.3" cy="16.8" r="6.5"/><circle cx="1452.4" cy="106.3" r="6.5"/></g></g></svg>