<?xml version="1.0" encoding="UTF-8"?>
<svg width="96px" height="96px" viewBox="0 0 96 96" version="1.1" xmlns="http://www.w3.org/2000/svg" xmlns:xlink="http://www.w3.org/1999/xlink">
    <!-- Generator: Sketch 49.3 (51167) - http://www.bohemiancoding.com/sketch -->
    <title>html</title>
    <desc>Created with Sketch.</desc>
    <defs></defs>
    <g id="html" stroke="none" stroke-width="1" fill="none" fill-rule="evenodd">
        <g id="ico-/-HTML">
            <g id="HTML" transform="translate(24.960000, 22.400000)">
                <polygon id="Shape-Copy-123" fill="#3272B1" fill-rule="nonzero" points="45.8261245 50.895082 6.69906542 50.895082 6.69906542 0 33.5989185 0 45.8261245 12.1178767"></polygon>
                <polygon id="Shape-Copy-122" fill="#FFFFFF" fill-rule="nonzero" points="44.1541634 13.4260015 32.5383178 13.4260015 32.5383178 1.91401869"></polygon>
                <rect id="Rectangle-5-Copy-98" fill="#FFFFFF" x="0" y="7.65607477" width="26.317757" height="13.3981308" rx="6.69906542"></rect>
                <path d="M7.61565421,17.2261682 L6.42406542,17.2261682 L6.42406542,14.7476636 L4.10046729,14.7476636 L4.10046729,17.2261682 L2.9088785,17.2261682 L2.9088785,11.4429907 L4.10046729,11.4429907 L4.10046729,13.7864486 L6.42406542,13.7864486 L6.42406542,11.4429907 L7.61565421,11.4429907 L7.61565421,17.2261682 Z M12.6876785,12.4081776 L10.9161832,12.4081776 L10.9161832,17.2261682 L9.72459439,17.2261682 L9.72459439,12.4081776 L7.97693084,12.4081776 L7.97693084,11.4429907 L12.6876785,11.4429907 L12.6876785,12.4081776 Z M14.7171794,11.4429907 L16.2026934,15.6373832 L17.6802635,11.4429907 L19.2452168,11.4429907 L19.2452168,17.2261682 L18.0496561,17.2261682 L18.0496561,15.6453271 L18.1688149,12.9165888 L16.6078336,17.2261682 L15.7896093,17.2261682 L14.2326,12.9205607 L14.3517589,15.6453271 L14.3517589,17.2261682 L13.1601701,17.2261682 L13.1601701,11.4429907 L14.7171794,11.4429907 Z M21.2707458,16.2689252 L23.800886,16.2689252 L23.800886,17.2261682 L20.079157,17.2261682 L20.079157,11.4429907 L21.2707458,11.4429907 L21.2707458,16.2689252 Z" fill="#3272B1"></path>
                <path d="M15.7906542,34.4411215 L22.9570093,41.6074766 L25.682243,38.882243 L21.2074766,34.4411215 L25.682243,29.9663551 L22.9570093,27.2747664 L15.7906542,34.4411215 Z M37.1551402,34.4411215 L29.988785,27.2747664 L27.2635514,29.9663551 L31.7383178,34.4411215 L27.2635514,38.882243 L29.988785,41.6074766 L37.1551402,34.4411215 Z" id="" fill="#FFFFFF"></path>
            </g>
        </g>
    </g>
</svg>