<svg height="96" viewBox="0 0 96 96" width="96" xmlns="http://www.w3.org/2000/svg"><g fill="none" fill-rule="evenodd" transform="translate(22.4 22.4)"><path d="m0 6.40035363c0-3.5348177 2.86244402-6.40035363 6.40035363-6.40035363h38.39929277c3.5348177 0 6.4003536 2.86244402 6.4003536 6.40035363v38.39929277c0 3.5348177-2.862444 6.4003536-6.4003536 6.4003536h-38.39929277c-3.5348177 0-6.40035363-2.862444-6.40035363-6.4003536z" fill="#ff7f18"/><path d="m1.6 7.60033153c0-3.3138916 2.68354127-6.00033153 6.00033153-6.00033153h35.99933697c3.3138916 0 6.0003315 2.68354127 6.0003315 6.00033153v35.99933697c0 3.3138916-2.6835413 6.0003315-6.0003315 6.0003315h-35.99933697c-3.3138916 0-6.00033153-2.6835413-6.00033153-6.0003315z" fill="#423325"/><g fill="#ff7f18" transform="translate(9.6 10.24)"><path d="m6.81503781 22.138206-2.13282863 8.0991977c-.05398739.2158407-.13496848.2698281-.40490546.2698281h-3.96861773c-.26993697 0-.32403321-.0809811-.26993697-.4049055l7.66718964-26.83543585c.13496849-.48588655.21594958-.91789456.26993698-2.24069457 0-.18895588.08098109-.26993697.21594958-.26993697h5.66943838c.1889559 0 .2699369.05398739.3240332.26993697l8.5850842 29.13011782c.0539874.2158408 0 .3509181-.2159496.3509181h-4.4816068c-.2159496 0-.3510269-.0539874-.4049055-.2428344l-2.2138097-8.1261914zm7.50522749-4.373632c-.7558236-2.9967358-2.5376253-9.53008133-3.2126854-12.68877929h-.0539874c-.5669765 3.15869796-1.99775128 8.50410309-3.13159541 12.68877929z"/><path d="m26.4690617 2.7540102c0-1.72781432 1.2148253-2.75368366 2.7537926-2.75368366 1.6468332 0 2.7536836 1.10685043 2.7536836 2.75368366 0 1.78180171-1.1608378 2.75368366-2.807671 2.75368366-1.565961.00010885-2.6998052-.97188195-2.6998052-2.75368366z"/><path d="m26.7659924 8.88245025c0-.21594957.0809811-.32403321.3240332-.32403321h4.2385547c.2158408 0 .3239244.08098109.3239244.32403321v21.30096605c0 .2158407-.0539874.3239243-.3239244.3239243h-4.1845673c-.2699369 0-.3510269-.1349685-.3510269-.350918v-21.27397235z"/></g></g></svg>