<svg height='300px' width='300px'  fill="#000000" xmlns="http://www.w3.org/2000/svg" data-name="Layer 1" viewBox="0 0 80 80" x="0px" y="0px"><title>img-image-file-format</title><path d="M71,3H9A6.007,6.007,0,0,0,3,9V37a2,2,0,0,0,4,0V9A2,2,0,0,1,9,7H71a2,2,0,0,1,2,2V37a2,2,0,0,0,4,0V9A6.007,6.007,0,0,0,71,3Z"></path><path d="M56,19.933a4.96,4.96,0,0,0-3.967-1.958H52a4.958,4.958,0,0,0-3.975,2.012L32.4,40.962l-9.167-7.01a4.985,4.985,0,0,0-6.449.317L4.588,45.648A5.017,5.017,0,0,0,3,49.3V57a2,2,0,0,0,4,0V49.3a1,1,0,0,1,.318-.731L19.51,37.193a1,1,0,0,1,1.29-.063L36.082,48.816a2,2,0,1,0,2.43-3.178l-2.938-2.247L51.232,22.377a.984.984,0,0,1,.795-.4.935.935,0,0,1,.8.392L72.793,48.409a1,1,0,0,1,.207.609V72a1,1,0,0,1-1,1H49a2,2,0,0,0,0,4H72a5.006,5.006,0,0,0,5-5V49.018a5.028,5.028,0,0,0-1.032-3.042Z"></path><path d="M29,26a7,7,0,1,0-7-7A7.008,7.008,0,0,0,29,26Zm0-10a3,3,0,1,1-3,3A3,3,0,0,1,29,16Z"></path><path d="M27,77a2,2,0,0,0,2-2V63a2,2,0,0,0-3.627-1.163L22,66.559l-3.373-4.722A2,2,0,0,0,15,63V75a2,2,0,0,0,4,0V69.241l1.373,1.922a2,2,0,0,0,3.255,0L25,69.241V75A2,2,0,0,0,27,77Z"></path><path d="M5,73a2,2,0,0,0,0,4h6a2,2,0,0,0,0-4H10V65h1a2,2,0,0,0,0-4H5a2,2,0,0,0,0,4H6v8Z"></path><path d="M37,65h6a2,2,0,0,0,0-4H37a6.007,6.007,0,0,0-6,6v4a6.007,6.007,0,0,0,6,6h6a2,2,0,0,0,2-2V69a2,2,0,0,0-2-2H39a2,2,0,0,0,0,4h2v2H37a2,2,0,0,1-2-2V67A2,2,0,0,1,37,65Z"></path></svg>