<?xml version="1.0" encoding="UTF-8"?>
<svg width="96px" height="96px" viewBox="0 0 96 96" version="1.1" xmlns="http://www.w3.org/2000/svg" xmlns:xlink="http://www.w3.org/1999/xlink">
    <!-- Generator: Sketch 49.3 (51167) - http://www.bohemiancoding.com/sketch -->
    <title>photoshp</title>
    <desc>Created with Sketch.</desc>
    <defs></defs>
    <g id="photoshp" stroke="none" stroke-width="1" fill="none" fill-rule="evenodd">
        <g id="ico-/-Photoshop">
            <g id="Photoshop" transform="translate(22.400000, 22.400000)">
                <path d="M0,6.40035363 C0,2.86553593 2.86244402,0 6.40035363,0 L44.7996464,0 C48.3344641,0 51.2,2.86244402 51.2,6.40035363 L51.2,44.7996464 C51.2,48.3344641 48.337556,51.2 44.7996464,51.2 L6.40035363,51.2 C2.86553593,51.2 0,48.337556 0,44.7996464 L0,6.40035363 Z" id="border" fill="#31C5F0"></path>
                <path d="M1.6,7.60033153 C1.6,4.28643993 4.28354127,1.6 7.60033153,1.6 L43.5996685,1.6 C46.9135601,1.6 49.6,4.28354127 49.6,7.60033153 L49.6,43.5996685 C49.6,46.9135601 46.9164587,49.6 43.5996685,49.6 L7.60033153,49.6 C4.28643993,49.6 1.6,46.9164587 1.6,43.5996685 L1.6,7.60033153 Z" id="bg" fill="#34364E"></path>
                <g id="icon" transform="translate(9.600000, 11.520000)" fill="#31C5F0">
                    <path d="M26.2378599,10.8440255 C24.2409172,10.8440255 23.5585223,11.8550828 23.5585223,12.6892229 C23.5585223,13.5991847 24.0134522,14.2311338 26.6928917,15.6214013 C30.6614013,17.5425223 31.9000255,19.3877197 31.9000255,22.0924331 C31.9000255,26.1367643 28.8162038,28.3106242 24.6454013,28.3106242 C22.4462675,28.3106242 20.5504204,27.8555924 19.4635414,27.2237452 C19.2866242,27.1479236 19.2613503,27.0215541 19.2613503,26.8192611 L19.2613503,23.1034904 C19.2613503,22.8507516 19.3877197,22.774828 19.5647389,22.9012994 C21.1571975,23.9377325 22.977121,24.3926624 24.6454013,24.3926624 C26.6423439,24.3926624 27.4764841,23.5585223 27.4764841,22.4209936 C27.4764841,21.5110318 26.8950828,20.7021656 24.3420127,19.3877197 C20.7526115,17.6688917 19.2613503,15.9247898 19.2613503,13.0178854 C19.2613503,9.75704459 21.8144204,7.05243312 26.2378599,7.05243312 C28.4117197,7.05243312 29.9283567,7.38109554 30.7624968,7.76020382 C30.9646879,7.88657325 31.0152357,8.08876433 31.0152357,8.26568153 L31.0152357,11.7286115 C31.0152357,11.9308025 30.8888662,12.0572739 30.6360255,11.9813503 C29.5238726,11.2737834 27.8808662,10.8440255 26.2378599,10.8440255 L26.2378599,10.8440255 Z" id="Path"></path>
                    <path d="M0.000101910828,0.429757962 C0.000101910828,0.252840764 0.354038217,0.126369427 0.556127389,0.126369427 C2.17396178,0.0505477707 4.57528662,0 7.07770701,0 C14.0794904,0 16.8093758,3.84214013 16.8093758,8.74598726 C16.8093758,15.1663694 12.1583694,17.9216306 6.44575796,17.9216306 C5.48524841,17.9216306 5.1566879,17.8710828 4.47408917,17.8710828 L4.47408917,27.5775796 C4.47408917,27.7797707 4.39826752,27.8808662 4.17080255,27.8808662 L0.303388535,27.8808662 C0.101197452,27.8808662 0,27.8050446 0,27.5775796 L0,0.429757962 L0.000101910828,0.429757962 Z M4.49936306,13.8520255 C5.08076433,13.9025732 5.53579618,13.9025732 6.5468535,13.9025732 C9.50440764,13.9025732 12.2848408,12.866242 12.2848408,8.84718471 C12.2848408,5.63699363 10.2878981,4.01915924 6.92606369,4.01915924 C5.91500637,4.01915924 4.9543949,4.06970701 4.49936306,4.09498089 L4.49936306,13.8520255 Z" id="Combined-Shape"></path>
                </g>
            </g>
        </g>
    </g>
</svg>