<?xml version="1.0" encoding="UTF-8"?>
<svg width="96px" height="96px" viewBox="0 0 96 96" version="1.1" xmlns="http://www.w3.org/2000/svg" xmlns:xlink="http://www.w3.org/1999/xlink">
    <!-- Generator: Sketch 49.3 (51167) - http://www.bohemiancoding.com/sketch -->
    <title>styl</title>
    <desc>Created with Sketch.</desc>
    <defs></defs>
    <g id="styl" stroke="none" stroke-width="1" fill="none" fill-rule="evenodd">
        <g id="ico-/-Stylus">
            <g id="HTML-Copy" stroke-width="1" transform="translate(24.960000, 22.400000)">
                <polygon id="Shape-Copy-123" fill="#EE6C51" fill-rule="nonzero" points="45.8261245 50.895082 6.69906542 50.895082 6.69906542 0 33.5989185 0 45.8261245 12.1178767"></polygon>
                <polygon id="Shape-Copy-122" fill="#FFFFFF" fill-rule="nonzero" points="44.1541634 13.4260015 32.5383178 13.4260015 32.5383178 1.91401869"></polygon>
                <rect id="Rectangle-5-Copy-98" fill="#FFFFFF" x="0" y="7.65607477" width="26.317757" height="13.3981308" rx="6.69906542"></rect>
                <path d="M15.7906542,34.4411215 L22.9570093,41.6074766 L25.682243,38.882243 L21.2074766,34.4411215 L25.682243,29.9663551 L22.9570093,27.2747664 L15.7906542,34.4411215 Z M37.1551402,34.4411215 L29.988785,27.2747664 L27.2635514,29.9663551 L31.7383178,34.4411215 L27.2635514,38.882243 L29.988785,41.6074766 L37.1551402,34.4411215 Z" id="" fill="#FFFFFF"></path>
            </g>
            <path d="M26.6060156,38.5159375 L27.7896094,38.5159375 L27.7896094,39.68 L26.6060156,39.68 L26.6060156,38.5159375 Z M29.7451406,37.9026562 C29.7815991,38.1656784 29.853213,38.362291 29.9599844,38.4925 C30.1552979,38.7294804 30.4899299,38.8479687 30.9638906,38.8479687 C31.2477462,38.8479687 31.4782127,38.8167191 31.6552969,38.7542187 C31.9912361,38.6344265 32.1592031,38.4117725 32.1592031,38.08625 C32.1592031,37.8961449 32.0758706,37.7490109 31.9092031,37.6448437 C31.7425356,37.5432807 31.4808195,37.4534379 31.1240469,37.3753125 L30.5146719,37.2385937 C29.9157105,37.1031764 29.5016522,36.9560425 29.2724844,36.7971875 C28.8844616,36.5315612 28.6904531,36.1162007 28.6904531,35.5510937 C28.6904531,35.0354662 28.8779513,34.607085 29.2529531,34.2659375 C29.627955,33.92479 30.1787307,33.7542187 30.9052969,33.7542187 C31.5120707,33.7542187 32.0296437,33.9150244 32.4580313,34.2366406 C32.8864188,34.5582568 33.1110259,35.025049 33.1318594,35.6370312 L31.9756094,35.6370312 C31.9547759,35.2906754 31.8037358,35.0445841 31.5224844,34.89875 C31.3349834,34.8023954 31.1019129,34.7542187 30.8232656,34.7542187 C30.5133682,34.7542187 30.2659749,34.8167181 30.0810781,34.9417187 C29.8961814,35.0667194 29.8037344,35.2411968 29.8037344,35.4651562 C29.8037344,35.6708864 29.8948793,35.8245307 30.0771719,35.9260937 C30.19436,35.9938024 30.4443575,36.0732287 30.8271719,36.164375 L31.8193594,36.4026562 C32.2542574,36.5068234 32.5823791,36.646145 32.8037344,36.820625 C33.1474861,37.0914597 33.3193594,37.4833829 33.3193594,37.9964062 C33.3193594,38.5224505 33.1181895,38.9592951 32.7158438,39.3069531 C32.313498,39.6546111 31.7451443,39.8284375 31.0107656,39.8284375 C30.2607619,39.8284375 29.670924,39.6572153 29.2412344,39.3147656 C28.8115447,38.972316 28.5967031,38.5016176 28.5967031,37.9026562 L29.7451406,37.9026562 Z M38.3295781,33.9221875 L38.3295781,34.9417187 L36.6069219,34.9417187 L36.6069219,39.68 L35.3959844,39.68 L35.3959844,34.9417187 L33.6655156,34.9417187 L33.6655156,33.9221875 L38.3295781,33.9221875 Z M42.2538594,33.9221875 L43.6171406,33.9221875 L41.6913594,37.5159375 L41.6913594,39.68 L40.4882344,39.68 L40.4882344,37.5159375 L38.4960469,33.9221875 L39.9140156,33.9221875 L41.1093281,36.43 L42.2538594,33.9221875 Z M44.2406406,33.9221875 L45.4437656,33.9221875 L45.4437656,38.6448437 L48.2953281,38.6448437 L48.2953281,39.68 L44.2406406,39.68 L44.2406406,33.9221875 Z" id=".styl" fill="#EE6C51"></path>
        </g>
    </g>
</svg>