<?xml version="1.0" encoding="UTF-8"?>
<svg width="72px" height="72px" viewBox="0 0 72 72" version="1.1" xmlns="http://www.w3.org/2000/svg" xmlns:xlink="http://www.w3.org/1999/xlink">
    <!-- Generator: Sketch 49.3 (51167) - http://www.bohemiancoding.com/sketch -->
    <title>logo/C13</title>
    <desc>Created with Sketch.</desc>
    <defs></defs>
    <g id="logo/C13" stroke="none" stroke-width="1" fill="none" fill-rule="evenodd">
        <path d="M21.9186567,50.3427774 L21.9186567,25.5575379 L18.9530407,28.0921044 L14.6095221,23.3401006 L21.9186567,16.6871718 L29.757992,16.6871718 L29.757992,49.0347732 C31.1501295,48.9128162 32.5981754,48.8422745 34.1068745,48.8342537 L35.2172011,45.4250107 C35.2172011,45.4250107 36.5373387,46.8095208 42.0982556,46.888906 C47.6595851,46.9680855 49.1689032,44.1170066 49.1689032,41.0281835 C49.1689032,37.9391548 45.832353,35.3256143 38.6028516,35.5633585 L38.6028516,30.5738161 C38.6028516,30.5738161 47.3420837,31.3658168 47.3420837,25.4259148 C47.3420837,19.4858071 38.6028516,20.9116551 36.3780722,22.8913482 L33.2003759,18.8523712 C33.2003759,18.8523712 36.4574991,15.9219071 42.5748172,15.9219071 C48.6923415,15.9219071 54.7302327,19.9608841 54.7302327,25.1881706 C54.7302327,30.4152515 50.1226453,32.7912534 50.1226453,32.7912534 C50.1226453,32.7912534 57.8289146,34.5338194 57.7494877,41.9785431 C57.6754246,48.8928671 52.1252355,50.8853112 50.6340722,51.134161 C55.1675966,52.3851971 60.0099576,54.2141407 65.1454762,56.7770885 C69.3425192,50.918217 71.8200206,43.7511356 71.8200206,36.0038844 C71.8200206,16.2330722 55.7421524,0.205702166 35.9099691,0.205702166 C16.077992,0.205702166 -8.25214902e-05,16.2330722 -8.25214902e-05,36.0038844 C-8.25214902e-05,43.9709872 2.61440458,51.3270711 7.02992321,57.2745825 C7.13348768,57.1842974 7.19372837,57.1322651 7.19372837,57.1322651 C7.19372837,57.1322651 12.3932011,52.7389341 21.9186567,50.3427774" id="Fill-1" fill="#FFFFFF"></path>
        <path d="M9.66405043,60.42278 C16.2185261,67.4206023 25.5490246,71.801388 35.9100103,71.801388 C46.3330934,71.801388 55.7147553,67.369804 62.2750074,60.2987664 C62.210847,60.2792286 48.4776206,55.8651258 36.2194659,55.8651258 C26.8481192,55.8651258 17.420039,57.5283066 9.66405043,60.42278" id="Fill-4" fill="#FFFFFF"></path>
    </g>
</svg>