<?xml version="1.0" encoding="UTF-8"?>
<svg width="180px" height="24px" viewBox="0 0 180 25" version="1.1" xmlns="http://www.w3.org/2000/svg" xmlns:xlink="http://www.w3.org/1999/xlink">
    <!-- Generator: Sketch 49.3 (51167) - http://www.bohemiancoding.com/sketch -->
    <title>logo/CDF</title>
    <desc>Created with Sketch.</desc>
    <defs></defs>
    <g id="logo/CDF" stroke="none" stroke-width="1" fill="none" fill-rule="evenodd">
        <g id="Group" fill="#FFFFFF">
            <path d="M170.564706,8.00113052 L170.479691,8.00004328 C168.957877,7.99315742 167.521446,8.80858792 166.656938,10.0183244 L169.085952,11.9644852 L166,13.6286882 C166.139484,14.0585107 166.357359,14.4564408 166.657674,14.8018209 C167.306147,15.5480304 168.25015,15.9727791 169.314868,15.9988729 L169.399884,15.9999601 C171.654818,16.0097453 173.727577,14.2183351 174.020531,12.0058003 C174.160751,10.94864 173.876998,9.95164027 173.222269,9.19818249 C172.573427,8.45233539 171.629792,8.02722429 170.564706,8.00113052" id="Fill-1"></path>
            <path d="M168.766966,18.2890892 C168.726126,18.2890892 168.686023,18.2883432 168.645183,18.2872241 C167.057599,18.2476842 165.638523,17.5811004 164.649548,16.4101958 C164.265437,15.9554865 163.96742,15.4466895 163.755129,14.9013366 L156.252458,19.0683245 L159.54757,4.93503264 L164.613123,9.11321107 C165.837569,7.41112838 167.834651,6.30587504 169.984788,6.36108175 C171.572741,6.40099472 172.992185,7.06757849 173.98116,8.23885608 C174.97639,9.41722101 175.409802,10.9551756 175.201926,12.569226 C174.788013,15.7909854 171.961267,18.3036369 168.766966,18.2890892 Z M156.604192,0 L151,24 L174.394704,24 L180,0 L156.604192,0 Z" id="Fill-3"></path>
            <polygon id="Fill-6" points="16.0685606 4.98478751 10.0996154 4.9581428 8.86870942 10.2232791 14.5445147 10.2485214 13.646115 14.1162124 7.97030972 14.0909701 6.57420502 19.9408878 13.097796 19.9703372 12.1663565 24 0 23.9453082 5.42062606 1 17 1.05258826"></polygon>
            <path d="M30.4185826,7.7930765 L25.2880894,7.76896991 C25.4800674,6.98054253 25.7982217,6.12617654 25.802292,5.27110153 C25.8063622,4.3827027 25.146989,3.98494392 24.3912876,3.98139884 C23.6362646,3.97714473 23.1627641,4.30471078 22.7815216,4.9605519 C22.5278122,5.41999519 22.2388276,6.80045211 22.2367925,7.32725205 C22.2347574,7.78740436 22.2964889,8.05044982 22.5461281,8.44679056 C22.8595339,8.97429953 25.7453091,11.1268764 26.4670921,11.7550659 C27.2194016,12.3839643 28.0978875,13.1114162 28.565961,14.0352659 C28.8780101,14.6287135 28.9383848,15.2540668 28.9356713,15.912035 C28.9282093,17.5902792 28.128414,20.6128205 27.0844065,21.8911789 C25.6605132,23.6608864 22.9511135,24.009723 20.8739523,23.9997967 C17.9155917,23.9856164 13.9830955,23.3758614 14.0000547,19.4280524 C14.00616,18.1121161 14.3582327,16.8302126 14.6784221,15.5816329 L20.0605897,15.6071575 C19.8367284,16.3955849 19.4208891,17.8079476 19.4174973,18.597793 C19.4134271,19.6506839 20.0721219,20.1469961 21.0164094,20.1512502 C21.5516414,20.1540862 22.1194349,19.9598155 22.4986424,19.533696 C23.0047045,18.9764083 23.3893389,17.3988445 23.3927307,16.642323 C23.3974793,15.4915877 22.518315,14.894595 21.7348006,14.2656966 C20.637202,13.3723346 17.9372995,11.4842212 17.3450847,10.297326 C17.0323573,9.70387845 16.9095728,9.04520127 16.9129646,8.3546183 C16.9204266,6.64375926 18.0058146,3.06251226 19.0505005,1.78486286 C20.378744,0.178938397 22.4572619,-0.00824220279 24.345837,0.000266006282 C27.2105828,0.0137373373 31.0169027,0.492324098 30.9999435,4.37419449 C30.995195,5.52563878 30.6750055,6.67566504 30.4185826,7.7930765" id="Fill-9"></path>
            <polygon id="Fill-11" points="46.0610828 5.02812176 42.1814059 5.01058379 37.6561791 24 32 23.9747453 36.5259354 4.9853291 32.2848639 4.96638809 33.2563776 1 47 1.06103215"></polygon>
            <path d="M50.4559647,14.9212925 L53.6265065,14.9360159 L54.7270367,3.13138241 L50.4559647,14.9212925 Z M58.2280194,24 L52.735232,23.9754611 L53.2495643,18.8699588 L48.9672192,18.8503277 L46.98246,23.9495199 L41,23.9221765 L51.0090481,1 L60,1.04066453 L58.2280194,24 Z" id="Fill-13"></path>
            <path d="M70.8873263,4.93535933 L68.9793892,4.92694145 L65.4192538,20.1436642 L66.8094417,20.1499776 C68.716682,20.159097 69.2678793,19.8357101 69.6978272,17.9171347 L72.2691522,6.82938254 C72.3353517,6.60209976 72.3360485,6.40638402 72.3367453,6.17910124 C72.3416232,5.20192556 71.7604619,4.93956827 70.8873263,4.93535933 M77.6995957,7.14785904 L75.0948225,18.3976554 C74.1053153,22.6893717 73.388271,24.0207999 68.7320124,23.9997552 L59,23.9555613 L64.3733029,1 L72.1005179,1.0350745 C74.9456995,1.04770133 78.0166561,1.35495398 77.999932,4.96762788 C77.9971447,5.71681928 77.8647458,6.43163767 77.6995957,7.14785904" id="Fill-15"></path>
            <polygon id="Fill-17" points="81.5787422 24 76 23.9747253 81.4219609 1 87 1.02527473"></polygon>
            <path d="M95.2715208,4.16724502 C94.1755395,4.16229521 93.7355273,4.48756823 93.3866219,5.56945459 C92.9425606,6.94479379 92.6537182,8.35478164 92.3034631,9.76335525 C91.7622211,11.8938936 91.2209792,14.0237248 90.7101061,16.1867904 C90.5508379,16.908755 90.2653699,17.7268874 90.2626704,18.4813794 C90.2579464,19.4989183 91.0711591,19.8305553 91.9160904,19.834798 C93.7942406,19.8432834 94.0236948,17.5479873 94.3746248,16.0729448 C94.6297239,14.9924727 94.9165416,13.9105863 95.1709658,12.8286999 C95.5225707,11.3536575 95.8728258,9.91184946 96.2237557,8.43680701 C96.4471361,7.55220581 96.7643228,6.50355386 96.768372,5.61824555 C96.7724212,4.6664684 96.1488457,4.17148771 95.2715208,4.16724502 M101.16377,10.1338837 L99.3456827,17.9340722 C99.0905836,19.0159585 98.8044407,20.1296651 98.2672479,21.1118482 C96.8466564,23.6638272 94.1519192,24.0117279 91.5847316,23.999707 C88.2340253,23.9841504 84.9825242,22.9192348 85.0000707,18.7847319 C85.0041199,17.8004274 85.133694,16.8500645 85.3570744,15.8989944 L87.4302607,6.95186494 C87.6860346,5.80421686 87.9107648,4.62474859 88.4162389,3.54356935 C89.7754177,0.597727137 92.4715046,-0.0132204552 95.3207859,0.000214734893 C98.5776859,0.0157712708 102.018149,0.918050354 101.999928,5.05184622 C101.992504,6.79064266 101.547093,8.46226316 101.16377,10.1338837" id="Fill-19"></path>
            <path d="M137.144268,6.41439083 L134.476541,18.1548194 C133.58871,22.0155372 130.35084,24.0135459 127.467933,23.9999309 L118,23.9565329 L123.503193,0 L131.413187,0.0357395085 C135.763387,0.0553111441 137.827932,2.89660207 137.144268,6.41439083 M130.170394,4.10663971 L128.217675,4.09813031 L124.57147,19.9783852 L126.281052,19.9860437 C127.984704,19.9937022 128.612455,18.8832246 128.949627,17.5625647 L131.506375,6.42970776 C131.559747,6.18974249 131.638533,5.70811007 131.63938,5.43921281 C131.642769,4.66996244 130.940468,4.11004347 130.170394,4.10663971" id="Fill-21"></path>
            <path d="M118.222742,9.21449284 L112.64451,9.18983414 C112.828769,8.40815336 113.089591,7.36509036 113.357985,6.20530951 C113.708833,4.69701904 112.371909,4.20959874 111.597856,4.22603787 C110.838947,4.24165505 109.918497,4.65345533 109.634116,5.85679988 C109.424617,6.74204721 107.046086,16.8134822 107.046086,16.8134822 C106.956061,17.1932261 106.876131,17.5310503 106.847525,17.6650293 C106.587544,18.920979 107.565207,19.7141672 108.44443,19.718277 C109.211753,19.7215648 110.162492,19.4511411 110.447714,18.504247 C110.668151,17.7751715 111.060225,15.9364544 111.324413,14.7939347 L116.932092,14.8202373 C115.767647,19.9360955 115.273767,24.0286177 107.98084,23.9998493 C105.876593,23.9924516 103.413085,23.7187401 101.974355,22.0057824 C101.320617,21.2471164 100.99501,20.3931034 101.000058,19.3755211 C101.005106,18.2601259 101.273501,17.2121312 101.541054,16.1304362 L103.821145,6.39435954 C104.056727,5.3463648 104.325121,4.26549179 104.822366,3.28243162 C106.28213,0.368595261 109.078817,-0.0136145864 112.004234,0.000358676818 C117.762516,0.02666129 119.63623,2.89775591 118.924438,6.32367127 C118.73429,7.24179686 118.591258,7.77278086 118.222742,9.21449284" id="Fill-23"></path>
            <polygon id="Fill-25" points="153.329343 4.13655075 145.208253 4.09992903 143.955785 9.56763662 149.860642 9.59403833 148.913861 13.7374024 143.009004 13.7110007 140.639928 24 135 23.97445 140.515955 0 154.272727 0.062171753"></polygon>
        </g>
    </g>
</svg>