<?xml version="1.0" encoding="UTF-8"?>
<svg width="213px" height="66px" viewBox="0 0 213 66" version="1.1" xmlns="http://www.w3.org/2000/svg" xmlns:xlink="http://www.w3.org/1999/xlink">
    <!-- Generator: Sketch 64 (93537) - https://sketch.com -->
    <title>fireclip</title>
    <desc>Created with Sketch.</desc>
    <g id="fireclip" stroke="none" stroke-width="1" fill="none" fill-rule="evenodd">
        <path d="M61,19.9844394 L61,24.8842963 L49.525,24.8842963 L49.525,30.2848686 L60.4333333,30.2848686 L60.4333333,35.1847255 L49.525,35.1847255 L49.525,44.9844394 L44,44.9844394 L44,19.9844394 L61,19.9844394 Z M66,19.9844394 L72,19.9844394 L72,44.9844394 L66,44.9844394 L66,19.9844394 Z M99.4157119,28.2820073 C99.4157119,32.2877498 97.8194377,34.874753 94.6268412,36.0430946 L101,44.9844394 L94.086743,44.9844394 L88.5057283,37.0087598 L84.6170213,37.0087598 L84.6170213,44.9844394 L79,44.9844394 L79,19.9844394 L88.5417349,19.9844394 C92.4544658,19.9844394 95.2449453,20.6401314 96.913257,21.9515352 C98.5815686,23.262939 99.4157119,25.3730753 99.4157119,28.2820073 Z M92.8492063,31.1052123 C93.616406,30.519058 94,29.5891156 94,28.3153573 C94,27.0415989 93.6031786,26.1680166 92.8095238,25.6945843 C92.015869,25.221152 90.626994,24.9844394 88.6428571,24.9844394 L84,24.9844394 L84,31.9844394 L88.5238095,31.9844394 C90.6402222,31.9844394 92.0820067,31.6913666 92.8492063,31.1052123 Z M122.594175,19.9844394 L122.594175,24.9558271 L109.75534,24.9558271 L109.75534,30.1060417 L121.302913,30.1060417 L121.302913,34.8628371 L109.75534,34.8628371 L109.75534,40.0488171 L123,40.0488171 L123,44.9844394 L104,44.9844394 L104,19.9844394 L122.594175,19.9844394 Z M140.300763,41.5321572 C143.109938,41.5321572 145.406098,40.3993885 147.189313,38.133817 L150.853435,41.98029 C147.94655,45.3164063 144.52063,46.9844394 140.575573,46.9844394 C136.630515,46.9844394 133.381692,45.7147425 130.829008,43.1753108 C128.276323,40.635879 127,37.4305168 127,33.5591282 C127,29.6877395 128.30075,26.4574814 130.90229,23.8682568 C133.50383,21.2790322 136.685477,19.9844394 140.447328,19.9844394 C144.648876,19.9844394 148.166398,21.6151285 151,24.8765556 L147.445802,28.9844394 C145.638159,26.6939715 143.390853,25.5487547 140.703817,25.5487547 C138.554188,25.5487547 136.716038,26.2645152 135.189313,27.6960576 C133.662588,29.1276001 132.899237,31.0570414 132.899237,33.4844394 C132.899237,35.9118374 133.61984,37.8599507 135.061069,39.3288377 C136.502297,40.7977247 138.248845,41.5321572 140.300763,41.5321572 Z M155,44.9844394 L155,19.9844394 L160.84141,19.9844394 L160.84141,40.0130517 L172,40.0130517 L172,44.9844394 L155,44.9844394 Z M175,19.9844394 L181,19.9844394 L181,44.9844394 L175,44.9844394 L175,19.9844394 Z M205.218919,22.2197756 C207.072982,23.7100072 208,25.9989685 208,29.0867284 C208,32.1744882 207.047757,34.4336454 205.143243,35.8642677 C203.238729,37.29489 200.331551,38.0101905 196.421622,38.0101905 L192.902703,38.0101905 L192.902703,44.9844394 L187,44.9844394 L187,19.9844394 L196.345946,19.9844394 C200.407228,19.9844394 203.364856,20.729544 205.218919,22.2197756 Z M201.062762,31.912099 C201.68759,31.1972018 202,30.1532406 202,28.7801841 C202,27.4071276 201.592752,26.4312508 200.778243,25.8525245 C199.963734,25.2737982 198.697359,24.9844394 196.979079,24.9844394 L194,24.9844394 L194,32.9844394 L197.514644,32.9844394 C199.255239,32.9844394 200.437933,32.6269961 201.062762,31.912099 Z" id="FIRECLIP" fill="#FFFFFF"></path>
        <path d="M18.533094,37.9035405 C18.5330937,40.4242587 16.3875891,44.0178646 12.1488039,44.0178646 C7.91001876,44.0178646 5.98454568,40.0430716 5.98454568,37.9098011 C5.98454568,35.7765306 6.90441701,34.2666554 7.91001858,33.2672569 C7.91001858,33.2672569 0.11700161,35.0622356 0.11700161,45.7938586 C0.11700161,56.5255873 16.1766891,66.2021994 16.1766891,66.2021994 C16.1766891,66.2021994 33.0596176,57.9063809 33.0596176,46.3229512 C33.0596176,33.4781321 19.068332,26.2650463 19.068332,17.9960501 C19.068332,9.72678949 29.16438,0.402200482 29.16438,0.402200482 C29.16438,0.402200482 10.9204323,6.2076704 10.9204323,17.820409 C10.9204323,29.4318778 18.5330948,32.3729642 18.533094,37.9035405 Z" id="Fill-1" fill="#FFFFFF"></path>
    </g>
</svg>