<?xml version="1.0" encoding="UTF-8"?>
<svg width="72px" height="72px" viewBox="0 0 72 72" version="1.1" xmlns="http://www.w3.org/2000/svg" xmlns:xlink="http://www.w3.org/1999/xlink">
    <!-- Generator: Sketch 49.3 (51167) - http://www.bohemiancoding.com/sketch -->
    <title>logo/mervapp</title>
    <desc>Created with Sketch.</desc>
    <defs></defs>
    <g id="logo/mervapp" stroke="none" stroke-width="1" fill="none" fill-rule="evenodd">
        <g id="Logo-Mervap" transform="translate(11.000000, 1.000000)" fill="#FFFFFF">
            <path d="M35.5798002,35.2703165 L15.383244,35.2703165 C10.8861411,35.2703165 6.96681394,34.0550356 4.84171208,32.5952139 L6.64866339,12.7385392 C8.68281374,11.6044837 12.1631291,10.8746088 16.1189087,10.8746088 L34.881307,10.8746088 C38.8422633,10.8746088 42.3260298,11.6085197 44.3596049,12.7440167 L46.1583598,32.5695562 C44.0426767,34.0415581 40.1011329,35.2703165 35.5798002,35.2703165 Z M40.8664198,47.3477377 C38.6441831,47.3477377 36.8438465,45.543411 36.8438465,43.3156604 C36.8438465,41.0894953 38.6441831,39.2834389 40.8664198,39.2834389 C43.0880093,39.2834389 44.8867642,41.0894953 44.8867642,43.3156604 C44.8867642,45.543411 43.0880093,47.3477377 40.8664198,47.3477377 Z M10.133724,47.3477377 C7.91350055,47.3477377 6.1132358,45.543411 6.1132358,43.3156604 C6.1132358,41.0894953 7.91350055,39.2834389 10.133724,39.2834389 C12.3559607,39.2834389 14.1561535,41.0894953 14.1561535,43.3156604 C14.1561535,45.543411 12.3559607,47.3477377 10.133724,47.3477377 Z M15.0489163,5.22580865 C15.0489163,4.64858267 15.3516087,4.14299642 15.8046407,3.85643749 C16.0547034,3.69564448 16.3507812,3.59964436 16.6702978,3.59964436 L34.3297022,3.59964436 C34.6494345,3.59964436 34.9452966,3.69564448 35.1953593,3.85643749 C35.6485351,4.14299642 35.9512275,4.64858267 35.9512275,5.22580865 L36.086756,6.6045492 C36.086756,7.50206388 35.3592877,8.22660537 34.4637928,8.22660537 L16.5348411,8.22660537 C15.6408561,8.22660537 14.9133159,7.50206388 14.9133159,6.6045492 L15.0489163,5.22580865 Z M48.1580708,12.2694215 C48.1096113,5.26912402 42.4170532,0 34.881307,0 L16.1189087,0 C8.58165265,0 2.88909456,5.26912402 2.84056312,12.2694215 L0.00747743658,43.4129578 L0,43.5887418 C0,50.4053994 5.32235308,54.9876757 13.2472136,54.9985586 C13.2573513,54.9985586 13.268136,55 13.2782737,55 L17.9265071,55 L33.149849,55 L37.7217263,55 C37.7574598,55 37.7904612,54.9973333 37.8263385,54.9973333 C45.7092822,54.9553153 51,50.3837777 51,43.5887418 L48.1580708,12.2694215 Z" id="Fill-1"></path>
            <polygon id="Fill-3" points="17.7232799 69 16.5413235 65.4056821 35.4588952 65.4056821 34.2754808 69 39.3774382 69 43 58 37.8986987 58 36.6983711 61.6432874 15.3018476 61.6432874 14.1013742 58 9 58 12.6232908 69"></polygon>
        </g>
    </g>
</svg>