<?xml version="1.0" encoding="UTF-8"?>
<svg width="213px" height="66px" viewBox="0 0 213 66" version="1.1" xmlns="http://www.w3.org/2000/svg" xmlns:xlink="http://www.w3.org/1999/xlink">
    <!-- Generator: Sketch 64 (93537) - https://sketch.com -->
    <title>moviedates</title>
    <desc>Created with Sketch.</desc>
    <g id="moviedates" stroke="none" stroke-width="1" fill="none" fill-rule="evenodd">
        <g id="Logo" transform="translate(1.000000, 13.246305)" fill="#FFFFFF">
            <g id="clapper-board" transform="translate(0.000000, 0.753695)" fill-rule="nonzero">
                <path d="M30.6,0 L5.4,0 C2.41766235,0 0,2.41766235 0,5.4 L0,30.6 C0,33.5823376 2.41766235,36 5.4,36 L30.6,36 C33.5823376,36 36,33.5823376 36,30.6 L36,5.4 C36,2.41766235 33.5823376,0 30.6,0 Z M25.362,3.6 L18.162,10.8 L10.638,10.8 L17.838,3.6 L25.362,3.6 Z M3.6,5.4 C3.6,4.40588745 4.40588745,3.6 5.4,3.6 L12.762,3.6 L5.562,10.8 L3.6,10.8 L3.6,5.4 Z M32.4,30.6 C32.4,31.5941125 31.5941125,32.4 30.6,32.4 L5.4,32.4 C4.40588745,32.4 3.6,31.5941125 3.6,30.6 L3.6,14.4 L32.4,14.4 L32.4,30.6 Z M32.4,10.8 L23.238,10.8 L30.438,3.6 L30.6,3.6 C31.5941125,3.6 32.4,4.40588745 32.4,5.4 L32.4,10.8 Z" id="Shape"></path>
            </g>
            <path d="M18.973494,17.7536946 C19.8987998,17.7536946 20.6923662,17.9113507 21.3542169,18.2266676 C22.0160676,18.5419844 22.5172674,18.9771152 22.8578313,19.532073 C23.1983953,20.0870307 23.3686747,20.7050425 23.3686747,21.386127 C23.3686747,22.243789 23.1309261,22.9469351 22.6554217,23.4955865 C22.1799173,24.0442379 21.5502047,24.3816219 20.7662651,24.5077486 L20.7662651,24.6023432 C22.6682826,25.157301 23.6192771,26.2545873 23.6192771,27.8942351 C23.6192771,29.0419886 23.2273132,29.9721595 22.4433735,30.6847757 C21.6594338,31.3973918 20.554224,31.7536946 19.1277108,31.7536946 C17.6112374,31.7536946 16.4032173,31.3847794 15.5036145,30.6469378 C14.6040116,29.9090963 14.1028118,28.7960444 14,27.3077486 L16.660241,27.3077486 C16.7244983,27.9888331 16.9526085,28.5280169 17.3445783,28.9253162 C17.7365481,29.3226155 18.2923659,29.5212621 19.0120482,29.5212621 C19.6289187,29.5212621 20.1108416,29.3541467 20.4578313,29.0199108 C20.804821,28.6856749 20.9783133,28.247391 20.9783133,27.7050459 C20.9783133,27.0617995 20.7277133,26.5699125 20.226506,26.2293703 C19.7252987,25.888828 18.9863503,25.7185594 18.0096386,25.7185594 L17.4506024,25.7185594 L17.4506024,23.5428838 L18.0096386,23.5428838 C19.8088443,23.5681091 20.7084337,22.9564035 20.7084337,21.7077486 C20.7084337,21.1654036 20.5477928,20.7397322 20.226506,20.4307216 C19.9052193,20.1217111 19.4682759,19.9672081 18.9156627,19.9672081 C18.3373465,19.9672081 17.8618493,20.146936 17.4891566,20.5063973 C17.116464,20.8658585 16.9044179,21.3672049 16.853012,22.0104513 L14.1927711,22.0104513 C14.2698799,20.6482824 14.7196746,19.5982929 15.5421687,18.8604513 C16.3646627,18.1226098 17.5084264,17.7536946 18.973494,17.7536946 Z M25.1036145,20.7618027 L25.1036145,18.2645054 L30,18.2645054 L30,31.6212621 L27.146988,31.6212621 L27.146988,20.7618027 L25.1036145,20.7618027 Z" id="31"></path>
            <path d="M68.3347731,10.2018274 L68.3347731,27.5794207 L64.7777846,27.5794207 L64.7777846,15.4549394 L60.2299208,27.5794207 L57.1302594,27.5794207 L52.5823955,15.5047319 L52.5823955,27.5794207 L49,27.5794207 L49,10.2018274 L53.3446074,10.2018274 L58.7309042,23.2723668 L64.0155728,10.2018274 L68.3347731,10.2018274 Z M80.5589013,9.75369458 C82.2357757,9.75369458 83.7559496,10.1354335 85.1194687,10.8989228 C86.4829878,11.6624121 87.5585426,12.7287915 88.3461654,14.0980929 C89.1337882,15.4673944 89.5275937,17.0150967 89.5275937,18.7412464 C89.5275937,20.4673962 89.1337882,22.0192479 88.3461654,23.3968481 C87.5585426,24.7744484 86.4829878,25.8449771 85.1194687,26.6084664 C83.7559496,27.3719557 82.2357757,27.7536946 80.5589013,27.7536946 C78.8820269,27.7536946 77.361853,27.3719557 75.998334,26.6084664 C74.6348149,25.8449771 73.5592601,24.7744484 72.7716373,23.3968481 C71.9840144,22.0192479 71.5902089,20.4673962 71.5902089,18.7412464 C71.5902089,17.0150967 71.9840144,15.4673944 72.7716373,14.0980929 C73.5592601,12.7287915 74.6348149,11.6624121 75.998334,10.8989228 C77.361853,10.1354335 78.8820269,9.75369458 80.5589013,9.75369458 Z M80.5589013,12.9902091 C79.5087376,12.9902091 78.5856236,13.2225719 77.7895317,13.6873045 C76.9934398,14.1520372 76.3709731,14.8200803 75.9221128,15.6914539 C75.4732525,16.5628276 75.2488257,17.5794149 75.2488257,18.7412464 C75.2488257,19.903078 75.4732525,20.9196653 75.9221128,21.791039 C76.3709731,22.6624126 76.9934398,23.3304557 77.7895317,23.7951884 C78.5856236,24.259921 79.5087376,24.4922838 80.5589013,24.4922838 C81.6090651,24.4922838 82.532179,24.259921 83.3282709,23.7951884 C84.1243628,23.3304557 84.7468296,22.6624126 85.1956899,21.791039 C85.6445502,20.9196653 85.868977,19.903078 85.868977,18.7412464 C85.868977,17.5794149 85.6445502,16.5628276 85.1956899,15.6914539 C84.7468296,14.8200803 84.1243628,14.1520372 83.3282709,13.6873045 C82.532179,13.2225719 81.6090651,12.9902091 80.5589013,12.9902091 Z M95.2983286,10.0026572 L100.100263,23.9196697 L104.927605,10.0026572 L108.764071,10.0026572 L102.412306,27.5794207 L97.8136275,27.5794207 L91.4618624,10.0026572 L95.2983286,10.0026572 Z M114.83969,10.0026572 L114.83969,27.5794207 L111.257295,27.5794207 L111.257295,10.0026572 L114.83969,10.0026572 Z M122.236477,12.791039 L122.236477,17.3470556 L128.588242,17.3470556 L128.588242,20.0358523 L122.236477,20.0358523 L122.236477,24.7661427 L129.350454,24.7661427 L129.350454,27.5794207 L118.654081,27.5794207 L118.654081,10.0026572 L129.350454,10.0026572 L129.350454,12.791039 L122.236477,12.791039 Z M148.33286,18.7661427 C148.33286,20.50889 147.960227,22.0441444 147.21495,23.3719518 C146.469672,24.6997593 145.389883,25.732944 143.975549,26.4715369 C142.561216,27.2101298 140.880132,27.5794207 138.932248,27.5794207 L132.555076,27.5794207 L132.555076,10.0026572 L138.932248,10.0026572 C140.880132,10.0026572 142.561216,10.3636495 143.975549,11.0856448 C145.389883,11.8076401 146.469672,12.8283768 147.21495,14.1478855 C147.960227,15.4673941 148.33286,17.0067978 148.33286,18.7661427 Z M138.627363,24.4424913 C140.558309,24.4424913 142.053076,23.9445709 143.111709,22.9487153 C144.170342,21.9528597 144.699651,20.5586828 144.699651,18.7661427 C144.699651,16.957005 144.170342,15.5545294 143.111709,14.5586738 C142.053076,13.5628182 140.558309,13.0648979 138.627363,13.0648979 L136.137471,13.0648979 L136.137471,24.4424913 L138.627363,24.4424913 Z M162.513332,24.044151 L155.323134,24.044151 L154.052781,27.5794207 L150.267129,27.5794207 L156.872965,10.2018274 L160.963501,10.2018274 L167.54393,27.5794207 L163.758278,27.5794207 L162.513332,24.044151 Z M161.547864,21.3802506 L158.90553,13.9611635 L156.263195,21.3802506 L161.547864,21.3802506 Z M182.232543,10.0026572 L182.232543,12.791039 L177.278166,12.791039 L177.278166,27.5794207 L173.695771,27.5794207 L173.695771,12.791039 L168.766801,12.791039 L168.766801,10.0026572 L182.232543,10.0026572 Z M188.358977,12.791039 L188.358977,17.3470556 L194.710742,17.3470556 L194.710742,20.0358523 L188.358977,20.0358523 L188.358977,24.7661427 L195.472954,24.7661427 L195.472954,27.5794207 L184.776581,27.5794207 L184.776581,10.0026572 L195.472954,10.0026572 L195.472954,12.791039 L188.358977,12.791039 Z M211,22.7744415 C211,23.6707115 210.771339,24.4964294 210.314009,25.2516199 C209.85668,26.0068104 209.179165,26.6126135 208.281445,27.0690473 C207.383724,27.5254811 206.291231,27.7536946 205.003934,27.7536946 C203.733574,27.7536946 202.598737,27.5420784 201.599388,27.1188398 C200.600038,26.6956012 199.799724,26.0856488 199.19842,25.2889643 C198.597117,24.4922798 198.254125,23.5628285 198.169434,22.5005825 L201.980493,22.5005825 C202.065184,23.2142791 202.357362,23.8076341 202.857037,24.2806655 C203.356712,24.7536946 204.021523,24.9902091 204.851491,24.9902091 C205.596769,24.9902091 206.168422,24.7951903 206.566468,24.4051469 C206.964514,24.0151034 207.163534,23.5130338 207.163534,22.8989228 C207.163534,22.3512022 207.002624,21.8989246 206.6808,21.5420763 C206.358975,21.1852281 205.952466,20.8989239 205.461261,20.6831552 C204.970055,20.4673864 204.29254,20.2184263 203.428696,19.9362672 C202.31078,19.5711201 201.396135,19.2101279 200.684733,18.8532796 C199.973332,18.4964314 199.367803,17.9777644 198.868129,17.297263 C198.368454,16.6167617 198.11862,15.7288038 198.11862,14.6333626 C198.11862,13.1229816 198.673336,11.9321222 199.782783,11.0607485 C200.89223,10.1893749 202.36159,9.75369458 204.190908,9.75369458 C206.087978,9.75369458 207.599683,10.2018229 208.726068,11.0980929 C209.852453,11.994363 210.491858,13.1893718 210.644301,14.6831552 L206.782428,14.6831552 C206.680799,14.0524466 206.409793,13.5337796 205.969402,13.1271386 C205.529011,12.7204975 204.927716,12.5171801 204.165501,12.5171801 C203.504914,12.5171801 202.971371,12.6873028 202.564856,13.0275535 C202.158341,13.3678042 201.955086,13.8615752 201.955086,14.5088813 C201.955086,15.0234067 202.111762,15.4507883 202.425117,15.791039 C202.738472,16.1312896 203.136512,16.4092952 203.619249,16.6250639 C204.101985,16.8408326 204.758328,17.0814941 205.588296,17.3470556 C206.740089,17.7453978 207.675906,18.1188381 208.395776,18.4673875 C209.115647,18.815937 209.729644,19.3387533 210.237788,20.0358523 C210.745932,20.7329512 211,21.6458051 211,22.7744415 Z" id="MOVIEDATES" fill-rule="nonzero"></path>
        </g>
    </g>
</svg>