<?xml version="1.0" encoding="UTF-8"?>
<svg width="75px" height="75px" viewBox="0 0 75 75" version="1.1" xmlns="http://www.w3.org/2000/svg" xmlns:xlink="http://www.w3.org/1999/xlink">
    <!-- Generator: Sketch 49.3 (51167) - http://www.bohemiancoding.com/sketch -->
    <title>logo/ned</title>
    <desc>Created with Sketch.</desc>
    <defs></defs>
    <g id="logo/ned" stroke="none" stroke-width="1" fill="none" fill-rule="evenodd">
        <path d="M63.0373679,45.2665974 L59.5661536,49.2704186 L47.535552,49.2704186 L47.535552,28.5525077 L59.5738193,28.5525077 L63.0373679,32.3153558 L63.0373679,45.2665974 Z M51.623943,32.6281963 L51.623943,45.1947979 L57.9168285,45.1947979 L59.1193265,43.6445208 L59.1193265,33.9347832 L57.9231314,32.6281963 L51.623943,32.6281963 Z M44.1285595,32.6281623 L32.5447849,32.6281623 L32.5447849,37.2132737 L41.2326158,37.2132737 L41.2326158,41.2889283 L32.5447849,41.2889283 L32.5447849,45.8740397 L44.1285595,45.8740397 L44.1285595,49.7798754 L32.936078,49.7798754 L28.4563939,45.3104107 L28.4563939,32.2978645 L32.9636746,28.5525077 L44.1285595,28.5525077 L44.1285595,32.6281623 Z M25.5604503,49.7798754 L20.9610104,49.7798754 L20.9610104,32.6281623 L13.4656269,32.6281623 L13.4656269,49.7798754 L9.54758546,49.7798754 L9.54758546,28.5525077 L22.3241481,28.5525077 L25.5604503,32.2705236 L25.5604503,49.7798754 Z M37.5002555,0 C16.7896591,0 0,16.7370152 0,37.3829228 C0,58.0290003 16.7896591,74.7663551 37.5002555,74.7663551 C58.2106816,74.7663551 75.0003407,58.0290003 75.0003407,37.3829228 C75.0003407,16.7370152 58.2106816,0 37.5002555,0 Z" id="Stroke-3" fill="#FFFFFF"></path>
    </g>
</svg>